<?xml version="1.0" standalone="no"?>
<!DOCTYPE svg PUBLIC "-//W3C//DTD SVG 1.1//EN" "http://www.w3.org/Graphics/SVG/1.1/DTD/svg11.dtd" >
<!--
2016-11-11: Created.
-->
<svg xmlns="http://www.w3.org/2000/svg">
<metadata>
Created by FontForge 20120731 at Fri Nov 11 23:11:36 2016
 By Apache
Created by Apache with FontForge 2.0 (http://fontforge.sf.net)
</metadata>
<defs>
<font id="Flaticon" horiz-adv-x="512" >
  <font-face 
    font-family="Flaticon"
    font-weight="500"
    font-stretch="normal"
    units-per-em="512"
    panose-1="2 0 6 3 0 0 0 0 0 0"
    ascent="448"
    descent="-64"
    bbox="-0.00458241 -64.001 512.001 450.211"
    underline-thickness="25.6"
    underline-position="-51.2"
    unicode-range="U+0020-F149"
  />
    <missing-glyph />
    <glyph glyph-name="space" unicode=" " horiz-adv-x="200" 
 />
    <glyph glyph-name="uniF104" unicode="&#xf104;" 
d="M425.197 129.004c9.29785 -9.29785 9.29785 -24.3711 0 -33.6689l-152.363 -152.362c-4.65039 -4.64746 -10.7412 -6.97266 -16.834 -6.97266s-12.1895 2.3252 -16.834 6.97266l-152.363 152.358c-9.2998 9.29883 -9.2998 24.3711 0 33.6689
c9.2959 9.2959 24.3691 9.2959 33.6689 0l111.722 -111.719v406.912c0 13.1465 10.6582 23.8066 23.8066 23.8066c13.1455 0 23.8066 -10.6602 23.8066 -23.8066v-406.911l111.722 111.722c9.2959 9.29785 24.373 9.29785 33.6689 0z" />
    <glyph glyph-name="uniF109" unicode="&#xf109;" 
d="M425.197 288.669c9.29785 -9.29883 9.29785 -24.3711 0 -33.667c-9.2959 -9.2959 -24.3691 -9.2959 -33.6689 0l-111.722 111.718v-406.913c0 -13.1465 -10.6631 -23.8066 -23.8066 -23.8066c-13.1475 0 -23.8066 10.6602 -23.8066 23.8066v406.912l-111.722 -111.723
c-4.65137 -4.64648 -10.7422 -6.97266 -16.835 -6.97266c-6.0918 0 -12.1885 2.32617 -16.834 6.97266c-9.2998 9.29785 -9.2998 24.3711 0 33.6689l152.363 152.362c9.2959 9.2959 24.3721 9.2959 33.668 0z" />
    <glyph glyph-name="uniF10A" unicode="&#xf10a;" 
d="M296.492 127.467c5.86621 0 10.666 -4.7998 10.666 -10.667c0 -5.86621 -4.7998 -10.666 -10.666 -10.666h-16c-5.86719 0 -10.667 4.7998 -10.667 10.666c0 5.86719 4.7998 10.667 10.667 10.667h16zM468.759 39.4668c4.7998 -8 5.33301 -18.1338 1.06641 -26.1338
c-4.7998 -8 -13.333 -13.333 -22.9336 -13.333h-131.199c0.533203 -1.06641 0.533203 -1.59961 0.533203 -2.66699c0 -33.5996 -27.7334 -61.333 -61.334 -61.333c-33.5996 0 -61.333 27.7334 -61.333 61.333c0 1.06738 0.533203 1.60059 0.533203 2.66699h-128
c-10.1328 0 -18.666 4.7998 -23.4668 13.333c-4.7998 8.5332 -4.2666 18.1338 0.533203 26.667l38.4004 64c5.86719 11.2002 10.1338 23.4668 12.2666 35.7334l23.4668 160v1.06641c7.4668 31.4668 30.4004 57.0664 60.2666 69.334l6.40039 2.13281
c2.13281 1.06641 5.86621 2.13379 9.06641 3.2002l0.533203 0.533203l27.7334 51.7334c6.93359 12.7998 19.2002 20.2666 33.0664 20.2666h5.33398c14.3994 0 27.1992 -7.4668 32.5332 -19.7334l27.2002 -52.2666s0.533203 0 1.06641 -0.533203
c1.06641 -0.533203 1.59961 -0.533203 2.66602 -1.06641c1.60059 -0.533203 3.7334 -1.06738 5.33398 -2.13379l5.86621 -2.66699c29.8672 -12.2666 52.7998 -37.8662 60.2666 -69.333v-1.06641l23.4668 -160c1.06641 -12.7998 5.33398 -24.5332 12.2666 -35.7334z
M294.358 -3.2002v2.66699h-80.5332c0.533203 -1.06641 0.533203 -1.60059 0.533203 -2.66699c0 -21.8662 18.1338 -40 40 -40c21.8672 0 40 18.1338 40 40zM450.625 23.4668c0.533203 1.06641 1.06738 3.2002 1.60059 4.7998l-38.4004 64
c-8.5332 13.8672 -13.8662 28.7998 -15.4668 43.7334l-23.4668 158.934c-6.39941 24.5332 -24 44.2666 -47.4658 53.8662l-6.40039 2.66699c0 0.533203 -0.533203 0.533203 -0.533203 0.533203c-1.06641 0.533203 -1.60059 0.533203 -2.66699 1.06641
c-1.59961 0.533203 -2.66699 1.06738 -4.2666 1.60059c-5.33301 1.59961 -9.06641 5.33301 -11.7334 9.59961c-0.533203 0 -0.533203 0.533203 -0.533203 0.533203l-27.7334 52.7998c-0.533203 0 -0.533203 0.53418 -0.533203 0.53418
c-2.13379 4.2666 -7.4668 7.46582 -13.333 7.46582h-5.33398c-5.86621 0 -10.666 -2.66602 -13.8662 -8.5332l-27.7334 -52.2666c-0.533203 0 -0.533203 -0.533203 -0.533203 -0.533203c-2.66699 -4.2666 -6.93359 -7.4668 -11.7334 -9.59961h-0.533203
c-3.2002 -1.06738 -5.86719 -2.13379 -8.5332 -3.2002l-6.40039 -2.13379c-22.9336 -9.06641 -40.5332 -29.333 -46.9336 -53.8662l-23.4668 -159.467c-0.533203 -2.66699 -1.06641 -5.86621 -1.59961 -8.5332h119.467c5.86621 0 10.666 -4.7998 10.666 -10.667
c0 -5.86621 -4.7998 -10.666 -10.666 -10.666h-126.934c-2.13281 -4.80078 -3.7334 -9.06738 -6.40039 -13.334l-38.3994 -64c-1.06641 -2.66602 -0.533203 -4.2666 0 -5.33301s1.59961 -2.66699 4.7998 -2.66699h380.8c2.66699 0 3.7334 2.13379 4.2666 2.66699z" />
    <glyph glyph-name="uniF116" unicode="&#xf116;" 
d="M80.918 -23.542l27.0664 12.5371h77.7822l-0.28418 -52.9951h-185.482v186.053l52.9951 -0.570312v-76.3574l-12.5371 -28.4932l143.315 143.314l40.458 -40.1729zM325.947 448h186.053v-185.482l-52.9951 -0.28418v77.7822l12.5371 27.0664l-143.315 -143.313
l-40.1729 40.458l143.314 143.315l-28.4932 -12.5371h-76.3574z" />
    <glyph glyph-name="uniF121" unicode="&#xf121;" 
d="M456.348 403.479c30.6094 0 55.6523 -25.0439 55.6523 -55.6523v-311.652c0 -30.6084 -25.043 -55.6523 -55.6523 -55.6523h-400.695c-30.6084 0 -55.6523 25.0439 -55.6523 55.6523v311.652c0 30.6084 25.0439 55.6523 55.6523 55.6523h400.695zM489.739 189.773
v158.053c0 18.3652 -15.0264 33.3916 -33.3916 33.3916h-400.695c-18.3652 0 -33.3916 -15.0264 -33.3916 -33.3916v-311.652c0 -18.3652 15.0264 -33.3916 33.3916 -33.3916h400.695c18.3652 0 33.3916 15.0264 33.3916 33.3916v122.991
c-0.556641 0.556641 -1.66992 1.11328 -2.22656 1.66992l-66.2256 66.2256l-188.104 -187.548c-2.22656 -2.22559 -5.00879 -3.33887 -7.79102 -3.33887c-2.7832 0 -5.56543 1.11328 -7.79199 3.33887c-4.45215 4.45215 -4.45215 11.1309 0 15.583l45.0791 45.0781
l-0.556641 0.556641l-64.5566 64.5566l-54.5391 -54.5391c-4.45215 -4.45215 -11.1309 -4.45215 -15.583 0s-4.45215 11.1299 0 15.582l54.5391 54.5391c8.34766 8.34863 22.8174 8.34863 31.165 0l64.5566 -64.5557l0.556641 -0.556641l127.443 126.887
c8.9043 8.9043 22.2607 8.9043 31.165 0zM100.73 99.6172c4.45215 4.45215 11.1309 4.45215 15.583 0s4.45215 -11.1299 0 -15.582l-11.1309 -11.1309c-2.22656 -2.22656 -5.00879 -3.33887 -7.79102 -3.33887c-2.7832 0 -5.56543 1.1123 -7.79199 3.33887
c-4.45215 4.45215 -4.45215 11.1309 0 15.583zM122.435 336.695c30.6094 0 55.6523 -25.043 55.6523 -55.6523c0 -30.6084 -25.043 -55.6514 -55.6523 -55.6514c-30.6084 0 -55.6523 25.043 -55.6523 55.6514c0 30.6094 25.0439 55.6523 55.6523 55.6523zM122.435 247.652
c18.3652 0 33.3916 15.0264 33.3916 33.3906c0 18.3652 -15.0264 33.3916 -33.3916 33.3916s-33.3906 -15.0264 -33.3906 -33.3916c0 -18.3643 15.0254 -33.3906 33.3906 -33.3906z" />
    <glyph glyph-name="uniF13F" unicode="&#xf13f;" 
d="M0 448h512v-512h-512v512zM480 -32v448h-448v-448h448z" />
    <glyph glyph-name="uniF148" unicode="&#xf148;" 
d="M434.986 271.411c44.3564 -11.6562 77.0137 -53.666 77.0137 -100.506c0 -56.5928 -46.0459 -102.639 -102.639 -102.639h-33.8945c-4.71094 0 -8.5332 3.81445 -8.5332 8.5332s3.82227 8.5332 8.5332 8.5332h33.8945c47.1807 0 85.5723 38.3916 85.5723 85.5723
c0 41.0537 -29.9521 77.6533 -69.6836 85.2061c-1.20312 0.162109 -20.9922 2.84961 -39.9697 -0.0175781c-0.435547 -0.0683594 -0.871094 -0.102539 -1.29688 -0.102539c-4.14746 0 -7.7832 3.0293 -8.42285 7.25391c-0.708008 4.65918 2.49219 9.01074 7.15137 9.71875
c13.0557 1.99707 26.1201 1.68164 34.8408 1.06738c-5.7168 66.1504 -60.6201 118.502 -126.702 118.502c-40.0732 0 -80.3672 -20.3008 -104.824 -52.3008c16.6748 -14.0967 27.3066 -35.1318 27.3066 -58.6328c0 -4.71875 -3.82227 -8.5332 -8.5332 -8.5332
c-4.70996 0 -8.5332 3.81445 -8.5332 8.5332c0 21.001 -10.9229 39.4668 -27.3662 50.125c-1.94531 1.2627 -3.96777 2.38965 -6.0332 3.40527c-0.580078 0.290039 -1.16016 0.580078 -1.74902 0.844727c-2.33008 1.05762 -4.71094 2.00488 -7.15137 2.74707
c-0.28125 0.0859375 -0.580078 0.136719 -0.870117 0.222656c-2.21875 0.639648 -4.47168 1.13477 -6.75879 1.50977c-0.657227 0.111328 -1.31348 0.22168 -1.97949 0.307617c-2.58594 0.34082 -5.18848 0.571289 -7.8252 0.571289
c-32.9385 0 -59.7334 -26.8027 -59.7334 -59.7334c0 -0.750977 0.0595703 -1.49316 0.102539 -2.23535l0.102539 -1.60449l-0.0771484 -1.49316c-0.0595703 -1.0752 -0.12793 -2.15039 -0.12793 -3.2002v-5.37598l-4.84668 -2.3125
c-31.8037 -15.249 -54.8867 -52.0449 -54.8867 -87.4922c0 -51.0381 41.5146 -92.5527 92.5439 -92.5527h43.9893c4.71094 0 8.53418 -3.81445 8.53418 -8.5332s-3.82324 -8.5332 -8.53418 -8.5332h-43.9893c-60.4414 0 -109.61 49.1777 -109.61 109.619
c0 40.5762 24.3799 81.1182 59.8701 100.463c-0.0771484 1.0752 -0.136719 2.15039 -0.136719 3.25098c0 42.3516 34.458 76.8008 76.7998 76.8008c2.91016 0 5.77734 -0.196289 8.59277 -0.503906c0.878906 -0.102539 1.73242 -0.273438 2.60352 -0.401367
c1.9707 -0.290039 3.91602 -0.623047 5.82812 -1.05762c1.00684 -0.230469 1.98828 -0.503906 2.97754 -0.768555c1.78418 -0.486328 3.52441 -1.01465 5.24805 -1.62109c0.990234 -0.349609 1.97168 -0.699219 2.95312 -1.08398
c1.75781 -0.69043 3.47266 -1.47559 5.16211 -2.29492c0.640625 -0.31543 1.31445 -0.538086 1.94629 -0.870117c27.8008 37.0771 72.6689 59.8008 119.006 59.8008c76.3301 0 139.639 -61.3887 144.136 -138.188zM270.575 185.225l68.2578 -68.2578
c3.33691 -3.33691 3.33691 -8.73047 0 -12.0664c-1.66406 -1.66406 -3.84863 -2.5 -6.0332 -2.5s-4.36914 0.835938 -6.0332 2.5l-53.7002 53.7002v-175.667c0 -4.71875 -3.82227 -8.5332 -8.5332 -8.5332c-4.70996 0 -8.5332 3.81445 -8.5332 8.5332v175.667
l-53.7002 -53.7002c-1.66406 -1.66406 -3.84863 -2.5 -6.0332 -2.5s-4.36914 0.835938 -6.0332 2.5c-3.33594 3.33594 -3.33594 8.72949 0 12.0664l68.2588 68.2578c0.792969 0.793945 1.73145 1.41602 2.78125 1.85156c2.08203 0.862305 4.4375 0.862305 6.51953 0
c1.0498 -0.435547 1.99707 -1.05762 2.78223 -1.85156z" />
    <glyph glyph-name="uniF149" unicode="&#xf149;" 
d="M460.8 386.56c28.1602 0 51.2002 -23.04 51.2002 -51.1992v-286.721c0 -28.1592 -23.04 -51.1992 -51.2002 -51.1992h-409.6c-28.1602 0 -51.2002 23.04 -51.2002 51.1992v286.721c0 28.1592 23.04 51.1992 51.2002 51.1992h409.6zM491.52 48.6396v215.04h-471.039
v-215.04c0 -16.8955 13.8232 -30.7197 30.7197 -30.7197h409.6c16.8965 0 30.7197 13.8242 30.7197 30.7197zM491.52 284.16v51.2002c0 16.8955 -13.8232 30.7197 -30.7197 30.7197h-409.6c-16.8965 0 -30.7197 -13.8242 -30.7197 -30.7197v-51.2002h471.039z
M71.6797 335.36c5.63184 0 10.2402 -4.6084 10.2402 -10.2402s-4.6084 -10.2402 -10.2402 -10.2402h-10.2393c-5.63281 0 -10.2402 4.6084 -10.2402 10.2402s4.60742 10.2402 10.2402 10.2402h10.2393zM117.76 335.36c5.63184 0 10.2402 -4.6084 10.2402 -10.2402
s-4.6084 -10.2402 -10.2402 -10.2402h-10.2402c-5.63184 0 -10.2393 4.6084 -10.2393 10.2402s4.60742 10.2402 10.2393 10.2402h10.2402zM163.84 335.36c5.63184 0 10.2402 -4.6084 10.2402 -10.2402s-4.6084 -10.2402 -10.2402 -10.2402h-10.2402
c-5.63184 0 -10.2393 4.6084 -10.2393 10.2402s4.60742 10.2402 10.2393 10.2402h10.2402z" />
    <glyph glyph-name="uniF11B" unicode="&#xf11b;" 
d="M0 21.333v56.8896h512v-56.8896h-512zM0 163.556v56.8887h512v-56.8887h-512zM0 362.667h512v-56.8896h-512v56.8896z" />
    <glyph glyph-name="uniF13B" unicode="&#xf13b;" 
d="M501.655 386.571c12.9258 -32.7119 13.7666 -64.2383 2.36719 -88.7695c-7.80859 -16.8076 -21.1104 -28.8262 -36.5547 -33.0566c-0.199219 -0.393555 -0.401367 -0.777344 -0.604492 -1.1377c-10.6416 -18.6885 -21.2158 -36.0742 -33.2715 -54.7051
c0.294922 -8.61816 -0.397461 -16.915 -2.05664 -24.667c-6.62891 -31.0127 -31.6875 -58.002 -63.8877 -68.8467c-12.543 -16.2637 -24.543 -30.9336 -35.6797 -43.6094c-41.4941 -47.2373 -56.0957 -49.9502 -60.8945 -50.8408
c-5.3252 -0.991211 -10.4424 -0.00292969 -14.4775 2.79785c-12.708 8.82031 -7.49707 27.5273 -5.53516 34.5664c3.18262 11.4131 9.2627 26.3447 18.0771 44.374c4.15918 8.50781 8.91895 17.6865 14.1602 27.2988c-4.47656 1.42578 -8.95898 2.14746 -13.3457 2.14746
c-15.4209 0 -26.0752 -9.10742 -28.501 -24.3604c-1.05859 -6.65332 -0.397461 -13.2627 0.302734 -20.2549c0.680664 -6.79395 1.38184 -13.8047 0.355469 -20.8213c-1.74023 -11.8877 -5.87402 -23.71 -12.2783 -35.1426
c-16.8506 -30.0459 -44.9912 -47.2783 -77.209 -47.2783c-12.9678 0 -26.1943 2.76465 -39.3057 8.21875c-53.1934 22.123 -92.5342 73.6982 -107.938 141.496c-1.16504 5.12012 -2.15625 10.3281 -2.94824 15.4824c-9.46973 61.666 9.00195 124.888 50.6768 173.453
c41.8945 48.8184 101.846 76.8184 164.479 76.8184c2.48242 0 4.99414 -0.0439453 7.46484 -0.130859c56.0938 -1.96387 110.657 -26.46 149.707 -67.2061c8.34668 -8.70898 16.2559 -18.4619 23.5244 -29.0068l0.424805 0.543945
c-3.9707 16.1465 3.99121 33.1816 21.3994 45.6787c12.3086 8.83691 23.6973 12.8906 34.71 16.8135c13.6592 4.86328 25.4492 9.0625 34.4346 21.6602c1.51367 2.12109 4.07129 3.24512 6.65137 2.92969c2.58789 -0.316406 4.79395 -2.02148 5.75195 -4.44531z
M327.579 270.413c4.31543 6.85352 5.70312 14.9775 3.91016 22.876c-1.79492 7.89844 -6.55957 14.624 -13.4121 18.9385c-4.84668 3.05469 -10.4219 4.66699 -16.124 4.66699c-10.5 0 -20.1025 -5.2959 -25.6895 -14.168
c-4.31836 -6.85352 -5.70215 -14.9785 -3.90918 -22.876s6.55859 -14.623 13.4121 -18.9395c4.84766 -3.05371 10.4238 -4.66699 16.125 -4.66699c10.5 0 20.1016 5.29688 25.6875 14.1689zM366.937 215.474c-27.8301 -40.9902 -52.5615 -81.957 -69.6367 -115.353
c-9.5498 -18.6758 -16.4111 -34.4385 -20.001 -45.9229c9.30176 7.51562 21.373 19.6494 35.167 35.3652c24.6953 28.1377 53.6104 66.1992 81.4189 107.173c16.9258 24.9297 30.9043 46.9551 43.9043 69.1885c-5.35254 1.83984 -10.5918 4.52832 -15.6016 8.00488
c-3.02344 2.09766 -5.81543 4.2998 -8.31152 6.55371c-15.3984 -19.9707 -31.6094 -42.4229 -46.9395 -65.0098zM97.7881 215.668c10.498 0 20.1016 5.29688 25.6914 14.1699c8.9043 14.1445 4.64258 32.9033 -9.50488 41.8135
c-4.84766 3.05469 -10.4238 4.66699 -16.127 4.66699c-10.499 0 -20.1016 -5.2959 -25.6855 -14.167c-4.31738 -6.85352 -5.70605 -14.9785 -3.91211 -22.877c1.79492 -7.89941 6.55762 -14.623 13.4111 -18.9385c4.84863 -3.05469 10.4248 -4.66797 16.127 -4.66797z
M66.0029 148.898c-4.31348 -6.85254 -5.70312 -14.9775 -3.91113 -22.873c1.79297 -7.89844 6.55566 -14.623 13.4082 -18.9395c4.84961 -3.05371 10.4277 -4.66699 16.1299 -4.66699c10.499 0 20.1016 5.29785 25.6846 14.167
c4.31934 6.85645 5.70801 14.9805 3.91309 22.876c-1.79492 7.89844 -6.55762 14.623 -13.4111 18.9385c-4.84961 3.05371 -10.4248 4.66797 -16.126 4.66797c-10.5 0 -20.1016 -5.29688 -25.6875 -14.1699zM163.111 328.986
c-4.31543 -6.85547 -5.70508 -14.9785 -3.9082 -22.876c1.79492 -7.89941 6.55664 -14.624 13.4082 -18.9385c4.84766 -3.05469 10.4248 -4.66699 16.125 -4.66699c10.499 0 20.1016 5.2959 25.6904 14.1689c8.90527 14.1465 4.64355 32.9062 -9.50488 41.8145
c-4.84766 3.05371 -10.4238 4.66699 -16.124 4.66699c-10.498 0 -20.1006 -5.29688 -25.6865 -14.1689z" />
    <glyph glyph-name="uniF105" unicode="&#xf105;" 
d="M488.193 215.808c13.1475 0 23.8066 -10.6602 23.8066 -23.8066c0 -13.1455 -10.6592 -23.8066 -23.8066 -23.8066h-406.91l111.722 -111.722c9.29785 -9.29785 9.29785 -24.3701 0 -33.668c-4.65039 -4.64551 -10.7412 -6.97266 -16.834 -6.97266
s-12.1895 2.32715 -16.834 6.97266l-152.362 152.362c-9.2998 9.29785 -9.2998 24.3701 0 33.668l152.358 152.362c9.2959 9.2959 24.3682 9.2959 33.668 0c9.29785 -9.29785 9.29785 -24.3701 0 -33.668l-111.718 -111.722h406.91z" />
    <glyph glyph-name="uniF12E" unicode="&#xf12e;" 
d="M64 -32h384v-32h-384v32zM352 448h99.2002v-268.8c0 -99.2002 -80 -179.2 -179.2 -179.2h-28.7998c-99.2002 0 -179.2 80 -179.2 179.2v268.8h96v-268.8c0 -48 35.2002 -83.2002 83.2002 -83.2002h25.5996c48 0 83.2002 35.2002 83.2002 83.2002v268.8z" />
    <glyph glyph-name="uniF12A" unicode="&#xf12a;" 
d="M0 368c0 25.5996 22.4004 48 48 48v0c25.5996 0 48 -22.4004 48 -48v0c0 -25.5996 -22.4004 -48 -48 -48v0c-25.5996 0 -48 22.4004 -48 48v0zM0 208c0 25.5996 22.4004 48 48 48v0c25.5996 0 48 -22.4004 48 -48v0c0 -25.5996 -22.4004 -48 -48 -48v0
c-25.5996 0 -48 22.4004 -48 48v0zM0 48c0 25.5996 22.4004 48 48 48v0c25.5996 0 48 -22.4004 48 -48v0c0 -25.5996 -22.4004 -48 -48 -48v0c-25.5996 0 -48 22.4004 -48 48v0zM160 416h352v-96h-352v96zM160 256h352v-96h-352v96zM160 96h352v-96h-352v96z" />
    <glyph glyph-name="uniF11A" unicode="&#xf11a;" 
d="M434.995 271.411c44.3477 -11.6562 77.0049 -53.666 77.0049 -100.506c0 -56.5928 -46.0459 -102.639 -102.639 -102.639h-33.8945c-4.71875 0 -8.5332 3.81445 -8.5332 8.5332s3.81445 8.5332 8.5332 8.5332h33.8945c47.1807 0 85.5723 38.3916 85.5723 85.5723
c0 41.0537 -29.9521 77.6533 -69.6836 85.2061c-1.16016 0.162109 -20.9658 2.8584 -39.9697 -0.0175781c-0.426758 -0.0683594 -0.862305 -0.102539 -1.28906 -0.102539c-4.14648 0 -7.78223 3.0293 -8.42188 7.25391c-0.708984 4.65918 2.49121 9.01074 7.15039 9.71875
c13.0645 1.98828 26.1289 1.67285 34.8418 1.05859c-5.72559 66.1592 -60.6211 118.511 -126.711 118.511c-40.0732 0 -80.3584 -20.3008 -104.824 -52.3008c16.6748 -14.0967 27.3066 -35.1318 27.3066 -58.6328c0 -4.71875 -3.81445 -8.5332 -8.5332 -8.5332
s-8.5332 3.81445 -8.5332 8.5332c0 21.0098 -10.9307 39.4844 -27.375 50.1338c-1.93652 1.25391 -3.94238 2.36328 -5.99023 3.37891c-0.597656 0.290039 -1.18652 0.588867 -1.79199 0.862305c-2.32129 1.05762 -4.69336 1.99609 -7.125 2.73926
c-0.298828 0.0849609 -0.606445 0.144531 -0.905273 0.230469c-2.20996 0.639648 -4.4541 1.13477 -6.73242 1.50977c-0.657227 0.111328 -1.32227 0.22168 -1.98828 0.307617c-2.58594 0.34082 -5.18848 0.571289 -7.8252 0.571289
c-32.9297 0 -59.7334 -26.8027 -59.7334 -59.7334c0 -0.733398 0.0595703 -1.45898 0.111328 -2.18457l0.110352 -1.65527l-0.09375 -1.57812c-0.0595703 -1.0498 -0.12793 -2.09082 -0.12793 -3.11523v-5.37598l-4.83789 -2.3125
c-31.8125 -15.249 -54.8955 -52.0449 -54.8955 -87.4922c0 -51.0381 41.5146 -92.5527 92.5439 -92.5527h43.9893c4.71973 0 8.53418 -3.81445 8.53418 -8.5332s-3.81445 -8.5332 -8.53418 -8.5332h-43.9893c-60.4414 0 -109.61 49.1777 -109.61 109.619
c0 40.5762 24.3799 81.1182 59.8779 100.463c-0.0761719 1.0752 -0.144531 2.15039 -0.144531 3.25098c0 42.3516 34.4492 76.8008 76.7998 76.8008c2.91016 0 5.77734 -0.196289 8.61035 -0.512695c0.870117 -0.09375 1.71484 -0.264648 2.57715 -0.392578
c1.97949 -0.297852 3.94238 -0.630859 5.8623 -1.06641c0.990234 -0.22168 1.96289 -0.495117 2.94434 -0.759766c1.79199 -0.486328 3.5498 -1.02344 5.28223 -1.62988c0.980469 -0.34082 1.9541 -0.69043 2.92676 -1.0752
c1.74902 -0.699219 3.46387 -1.47559 5.1543 -2.29492c0.648438 -0.307617 1.32227 -0.538086 1.96191 -0.870117c27.793 37.0771 72.6621 59.8008 118.998 59.8008c76.3301 0 139.639 -61.3887 144.145 -138.188zM326.767 57.2334
c3.33691 3.33594 8.72949 3.33594 12.0664 0c3.33691 -3.33691 3.33691 -8.72949 0 -12.0664l-68.2578 -68.2578c-0.785156 -0.793945 -1.73242 -1.41699 -2.78223 -1.85254c-1.04102 -0.43457 -2.15039 -0.65625 -3.25977 -0.65625s-2.21875 0.22168 -3.25977 0.65625
c-1.0498 0.435547 -1.99707 1.05859 -2.78125 1.85254l-68.2588 68.2578c-3.33594 3.33691 -3.33594 8.72949 0 12.0664c3.33691 3.33594 8.72949 3.33594 12.0664 0l53.7002 -53.7002v175.667c0 4.71875 3.81445 8.5332 8.5332 8.5332s8.5332 -3.81445 8.5332 -8.5332
v-175.667z" />
    <glyph glyph-name="uniF111" unicode="&#xf111;" 
d="M512 396.8l-204.8 -204.8l204.8 -204.8l-51.2002 -51.2002l-204.8 204.8l-204.8 -204.8l-51.2002 51.2002l204.8 204.8l-204.8 204.8l51.2002 51.2002l204.8 -204.8l204.8 204.8z" />
    <glyph glyph-name="uniF10B" unicode="&#xf10b;" 
d="M458.667 373.333c29.333 0 53.333 -24 53.333 -53.333v-64c0 -13.8662 -8.5332 -25.5996 -21.333 -30.4004v-225.6c0 -29.333 -24 -53.333 -53.334 -53.333h-357.333c-27.7334 0 -58.667 22.9326 -58.667 53.333v226.134c-12.2666 4.2666 -21.333 16 -21.333 29.8662v64
c0 29.333 24 53.333 53.333 53.333h53.334v32c0 17.6006 14.3994 32 32 32c17.5996 0 32 -14.3994 32 -32v-32h170.666v32c0 17.6006 14.4004 32 32 32c17.6006 0 32 -14.3994 32 -32v-32h53.334zM362.667 405.333v-85.333c0 -5.86621 4.7998 -10.667 10.666 -10.667
c5.86719 0 10.667 4.80078 10.667 10.667v85.333c0 5.86719 -4.7998 10.667 -10.667 10.667c-5.86621 0 -10.666 -4.7998 -10.666 -10.667zM128 405.333v-85.333c0 -5.86621 4.7998 -10.667 10.667 -10.667c5.86621 0 10.666 4.80078 10.666 10.667v85.333
c0 5.86719 -4.7998 10.667 -10.666 10.667c-5.86719 0 -10.667 -4.7998 -10.667 -10.667zM490.667 256v64c0 17.5996 -14.4004 32 -32 32h-53.334v-32c0 -17.5996 -14.3994 -32 -32 -32c-17.5996 0 -32 14.4004 -32 32v32h-170.666v-32c0 -17.5996 -14.4004 -32 -32 -32
c-17.6006 0 -32 14.4004 -32 32v32h-53.334c-17.5996 0 -32 -14.4004 -32 -32v-64c0 -5.86621 4.80078 -10.667 10.667 -10.667h330.667c5.86621 0 10.666 -4.7998 10.666 -10.666c0 -5.86719 -4.7998 -10.667 -10.666 -10.667h-320v-224.533
c0 -17.6006 20.2666 -32 37.333 -32h357.333c17.6006 0 32 14.3994 32 32v234.667c0 5.86621 4.80078 10.666 10.667 10.666h1.59961c0 0.533203 0.53418 0.533203 0.53418 0.533203c4.2666 1.06738 8.5332 4.80078 8.5332 10.667zM426.667 245.333
c5.86621 0 10.666 -4.7998 10.666 -10.666c0 -5.86719 -4.7998 -10.667 -10.666 -10.667h-16c-5.86719 0 -10.667 4.7998 -10.667 10.667c0 5.86621 4.7998 10.666 10.667 10.666h16zM160 160c5.86621 0 10.667 -4.7998 10.667 -10.667
c0 -5.86621 -4.80078 -10.666 -10.667 -10.666h-64c-5.86621 0 -10.667 4.7998 -10.667 10.666c0 5.86719 4.80078 10.667 10.667 10.667h64zM160 74.667c5.86621 0 10.667 -4.80078 10.667 -10.667s-4.80078 -10.667 -10.667 -10.667h-64
c-5.86621 0 -10.667 4.80078 -10.667 10.667s4.80078 10.667 10.667 10.667h64zM282.667 160c5.86621 0 10.666 -4.7998 10.666 -10.667c0 -5.86621 -4.7998 -10.666 -10.666 -10.666h-64c-5.86719 0 -10.667 4.7998 -10.667 10.666c0 5.86719 4.7998 10.667 10.667 10.667
h64zM282.667 74.667c5.86621 0 10.666 -4.80078 10.666 -10.667s-4.7998 -10.667 -10.666 -10.667h-64c-5.86719 0 -10.667 4.80078 -10.667 10.667s4.7998 10.667 10.667 10.667h64zM405.333 160c5.86719 0 10.667 -4.7998 10.667 -10.667
c0 -5.86621 -4.7998 -10.666 -10.667 -10.666h-64c-5.86621 0 -10.666 4.7998 -10.666 10.666c0 5.86719 4.7998 10.667 10.666 10.667h64zM405.333 74.667c5.86719 0 10.667 -4.80078 10.667 -10.667s-4.7998 -10.667 -10.667 -10.667h-64
c-5.86621 0 -10.666 4.80078 -10.666 10.667s4.7998 10.667 10.666 10.667h64z" />
    <glyph glyph-name="uniF127" unicode="&#xf127;" 
d="M512 0h-512v384h512v-384zM32 32h448v320h-448v-320zM64 128c0 0 41.5996 64 96 64c73.5996 0 67.2002 -51.2002 102.4 -51.2002c51.1992 0 60.7998 28.7998 121.6 19.2002c70.4004 -9.59961 64 -64 64 -64v-32h-384v64zM416 256c0 -35.3604 -28.6396 -64 -64 -64
s-64 28.6396 -64 64s28.6396 64 64 64s64 -28.6396 64 -64z" />
    <glyph glyph-name="uniF130" unicode="&#xf130;" 
d="M256 311.467c-37.6406 0 -68.2666 30.626 -68.2666 68.2666s30.626 68.2666 68.2666 68.2666s68.2666 -30.626 68.2666 -68.2666s-30.626 -68.2666 -68.2666 -68.2666zM256 430.934c-28.2363 0 -51.2002 -22.9639 -51.2002 -51.2002
c0 -28.2373 22.9639 -51.2002 51.2002 -51.2002s51.2002 22.9629 51.2002 51.2002c0 28.2363 -22.9639 51.2002 -51.2002 51.2002zM256 72.5332c37.6406 0 68.2666 -30.626 68.2666 -68.2666s-30.626 -68.2666 -68.2666 -68.2666s-68.2666 30.626 -68.2666 68.2666
s30.626 68.2666 68.2666 68.2666zM256 -46.9336c28.2363 0 51.2002 22.9639 51.2002 51.2002c0 28.2373 -22.9639 51.2002 -51.2002 51.2002s-51.2002 -22.9629 -51.2002 -51.2002c0 -28.2363 22.9639 -51.2002 51.2002 -51.2002zM256 260.267
c37.6406 0 68.2666 -30.626 68.2666 -68.2666s-30.626 -68.2666 -68.2666 -68.2666s-68.2666 30.626 -68.2666 68.2666s30.626 68.2666 68.2666 68.2666zM256 140.8c28.2363 0 51.2002 22.9639 51.2002 51.2002s-22.9639 51.2002 -51.2002 51.2002
s-51.2002 -22.9639 -51.2002 -51.2002s22.9639 -51.2002 51.2002 -51.2002z" />
    <glyph glyph-name="uniF11F" unicode="&#xf11f;" 
d="M256.027 448c141.39 0 255.973 -114.602 255.973 -255.954c0 -141.407 -114.583 -256.046 -255.973 -256.046c-141.389 0 -256.009 114.62 -256.009 256.046c0 141.353 114.62 255.954 256.009 255.954zM256.027 -37.7803c126.888 0 229.753 102.901 229.771 229.845
c0 126.888 -102.865 229.752 -229.771 229.752c-126.942 0 -229.789 -102.864 -229.789 -229.752c0 -126.943 102.847 -229.845 229.789 -229.845zM285.25 133.839h-57.9512l-11.1689 230.32h80.3262zM256.302 108.425c26.916 0 44.7314 -18.8408 45.208 -46.251
c0 -26.4219 -17.7607 -46.2881 -45.208 -46.2881h-1.02539c-26.457 0 -44.749 19.8662 -44.749 46.2881c0 27.4102 18.8408 46.251 45.7744 46.251z" />
    <glyph glyph-name="uniF110" unicode="&#xf110;" 
d="M256 416c-124.8 0 -224 -99.2002 -224 -224s99.2002 -224 224 -224s224 99.2002 224 224s-99.2002 224 -224 224zM256 448v0c140.8 0 256 -115.2 256 -256s-115.2 -256 -256 -256s-256 115.2 -256 256s115.2 256 256 256zM227.2 73.5996l-134.4 131.2l44.7998 44.7998
l89.6006 -86.3994l156.8 156.8l44.7998 -44.7998z" />
    <glyph glyph-name="uniF103" unicode="&#xf103;" 
d="M281.347 327.429l220.145 -220.155c14.0117 -14.0049 14.0117 -36.7031 0 -50.7012c-13.998 -13.998 -36.7031 -13.998 -50.7002 0l-194.792 194.797l-194.79 -194.797c-14.0049 -13.998 -36.707 -13.998 -50.7051 0c-14.0039 13.999 -14.0039 36.7031 0 50.708
l220.148 220.155c7.00293 6.99609 16.1709 10.4912 25.3467 10.4912c9.17285 0 18.3477 -3.50195 25.3477 -10.498z" />
    <glyph glyph-name="uniF13E" unicode="&#xf13e;" 
d="M194.206 373.831l106.477 -349.463c0.729492 -2.18652 1.09473 -3.64258 1.09473 -4.36914c0 -2.54785 -0.819336 -4.55078 -2.45801 -6.00586c-1.6377 -1.45508 -3.55176 -2.18457 -5.73535 -2.18457h-0.543945h-63.8857c-4.00488 0 -6.55273 2.00293 -7.64453 6.00684
l-18.0195 63.3398h-105.386l-18.0195 -63.3398c-1.0918 -4.00391 -3.82227 -6.00684 -8.19043 -6.00684h-63.3398c-3.27637 0 -5.64258 1.09473 -7.09863 3.2793c-1.45605 1.45605 -1.82031 3.81934 -1.0918 7.0957l107.022 351.647
c1.45605 4.00391 4.18652 6.00586 8.19141 6.00586h70.4375c4.00391 0 6.73438 -2.00195 8.19043 -6.00586zM114.485 149.41h72.623l-36.584 128.864zM486.335 250.973c17.1113 -15.6533 25.666 -37.8584 25.665 -66.6162v-165.997
c0 -2.18555 -0.819336 -4.09766 -2.45703 -5.73535c-1.63867 -1.63867 -3.55176 -2.45801 -5.73633 -2.45801h-51.3242c-2.18652 0 -4.0957 0.819336 -5.73633 2.45801c-1.63867 1.6377 -2.45703 3.55176 -2.45703 5.73535v4.91406
c-7.64258 -6.18848 -16.3789 -10.9199 -26.21 -14.1963c-9.8291 -3.27637 -20.0205 -4.91406 -30.5771 -4.91406s-20.748 1.91113 -30.5781 5.7334c-9.82715 3.82227 -18.7451 9.46582 -26.7529 16.9268c-8.01172 7.46289 -14.3789 16.6543 -19.1143 27.5752
c-4.73242 10.9199 -7.0957 23.6641 -7.0957 38.2217c0 14.9277 2.45703 27.9414 7.37207 39.042c4.91406 11.1045 11.2832 20.2061 19.1104 27.3047c7.82422 7.09863 16.7441 12.377 26.7559 15.835c10.0107 3.45703 20.1123 5.18555 30.3057 5.18555
c22.5684 0 41.498 -6.00391 56.7861 -18.0166v15.835c0 25.1172 -13.1045 37.6768 -39.3135 37.6768c-20.3857 0 -38.9502 -8.55469 -55.6953 -25.6641c-2.18457 -2.18359 -4.55176 -2.91309 -7.09863 -2.18359c-2.91309 0.727539 -4.91309 2.18457 -6.00684 4.36816
l-20.2031 34.9453c-1.82031 3.63965 -1.27637 6.91602 1.63867 9.82812c12.376 12.377 26.7549 21.751 43.1367 28.1211s34.2188 9.55469 53.5127 9.55469c30.9395 0 54.9648 -7.82617 72.0732 -23.4795zM444.291 74.0576v35.4902
c-5.0957 8.37207 -11.4658 13.7412 -19.1104 16.1074c-7.64355 2.36719 -14.0156 3.5498 -19.1113 3.5498c-10.5566 0 -18.9277 -3.45801 -25.1152 -10.375c-6.18945 -6.91602 -9.2832 -15.835 -9.2832 -26.7529c0 -10.9229 3.09277 -19.751 9.2832 -26.4854
c6.18652 -6.73438 14.5586 -10.1016 25.1152 -10.1016c17.4727 0 30.2139 6.19043 38.2217 18.5674z" />
    <glyph glyph-name="uniF12F" unicode="&#xf12f;" 
d="M406.4 83.2002l41.5996 -19.2002v-64h-128s3.2002 -64 -64 -64s-64 64 -64 64h-128v64l41.5996 19.2002c12.8008 6.39941 22.4004 22.3994 22.4004 38.3994v166.4s0 76.7998 96 92.7998v35.2002s-3.2002 32 32 32s32 -32 32 -32v-35.2002c96 -16 96 -92.7998 96 -92.7998
v-166.4c0 -16 6.40039 -32 22.4004 -38.3994zM416 32v9.59961l-22.4004 12.8008c-25.5996 12.7998 -41.5996 38.3994 -41.5996 67.1992v166.4c0 9.59961 -6.40039 51.2002 -70.4004 64l-25.5996 3.2002l-25.5996 -6.40039
c-70.4004 -9.59961 -70.4004 -57.5996 -70.4004 -60.7998v-166.4c0 -28.7998 -16 -54.3994 -41.5996 -64l-22.4004 -12.7998v-12.7998h320z" />
    <glyph glyph-name="uniF125" unicode="&#xf125;" 
d="M352 208c0 0 96 -9.59961 96 -131.2c0 -140.8 -137.6 -140.8 -256 -140.8h-128v512h128c60.7998 0 224 6.40039 224 -124.8c0 -89.6006 -64 -115.2 -64 -115.2zM288 307.2c0 41.5996 -38.4004 44.7998 -96 44.7998v-96c48 0 96 -6.40039 96 51.2002zM192 32
c48 0 128 -3.2002 128 57.5996c0 80 -70.4004 70.4004 -128 70.4004v-128z" />
    <glyph glyph-name="uniF146" unicode="&#xf146;" 
d="M403.278 214.413c13.6016 -12.5166 13.6016 -32.7578 0.0644531 -45.0791l-244.363 -223.994c-13.6631 -12.4521 -35.8213 -12.4521 -49.5488 0l0.12793 0.128906c-6.7041 5.74805 -11.0449 13.8564 -11.0449 22.9873v446.966c0 9.00195 4.15039 17.0479 10.6641 22.7939
l0.19043 0.446289c13.6631 12.4521 35.8857 12.4521 49.5488 0l243.021 -223.483z" />
    <glyph glyph-name="uniF136" unicode="&#xf136;" 
d="M288 128h-64c0 64 38.4004 83.2002 64 96c9.59961 3.2002 16 6.40039 22.4004 12.7998c3.19922 3.2002 9.59961 9.60059 3.19922 22.4004c-6.39941 16 -25.5996 32 -54.3994 32c-44.7998 0 -51.2002 -38.4004 -54.4004 -48l-64 9.59961
c3.2002 35.2002 32 102.4 115.2 102.4c51.2002 0 96 -28.7998 115.2 -70.4004c12.7998 -35.2002 6.39941 -70.3994 -19.2002 -96c-12.7998 -12.7998 -25.5996 -19.2002 -38.4004 -22.3994c-19.1992 -12.8008 -25.5996 -6.40039 -25.5996 -38.4004zM256 416
c-124.8 0 -224 -99.2002 -224 -224s99.2002 -224 224 -224s224 99.2002 224 224s-99.2002 224 -224 224zM256 448v0c140.8 0 256 -115.2 256 -256s-115.2 -256 -256 -256s-256 115.2 -256 256s115.2 256 256 256zM220.8 96h64v-64h-64v64z" />
    <glyph glyph-name="uniF112" unicode="&#xf112;" 
d="M305.971 192.01l195.742 -195.744c13.7129 -13.7129 13.7129 -36.1934 0 -49.9785c-13.7832 -13.7129 -36.2656 -13.7129 -49.9785 0l-195.744 195.744l-195.674 -195.744c-13.7822 -13.7129 -36.1924 -13.7129 -49.9775 0c-13.7852 13.7832 -13.7852 36.2656 0 49.9785
l195.674 195.744l-195.674 195.674c-13.7852 13.7822 -13.7832 36.1924 0 49.9775c13.7822 13.7852 36.1924 13.7852 49.9775 0l195.677 -195.674l195.744 195.674c13.7129 13.7852 36.1924 13.7852 49.9775 0c13.7129 -13.7822 13.7129 -36.1924 0 -49.9775z" />
    <glyph glyph-name="uniF115" unicode="&#xf115;" 
d="M471.148 434.383c22.5264 0 40.8516 -18.3262 40.8516 -40.8506v-326.809c0 -22.5254 -18.3252 -40.8516 -40.8516 -40.8516h-157.957v-59.915h57.1914c4.5127 0 8.16992 -3.65723 8.16992 -8.16992c0 -4.51172 -3.65723 -8.16992 -8.16992 -8.16992h-228.766
c-4.5127 0 -8.16992 3.6582 -8.16992 8.16992c0 4.5127 3.65723 8.16992 8.16992 8.16992h57.1914v59.915h-157.958c-22.5254 0 -40.8506 18.3262 -40.8506 40.8516v326.809c0 22.5244 18.3252 40.8506 40.8506 40.8506h430.298zM296.851 -34.043v59.915h-81.7021v-59.915
h81.7021zM495.659 66.7236v24.5107h-479.318v-24.5107c0 -13.5146 10.9941 -24.5107 24.5098 -24.5107h430.298c13.5166 0 24.5107 10.9961 24.5107 24.5107zM495.659 107.574v285.958c0 13.5146 -10.9941 24.5107 -24.5107 24.5107h-430.298
c-13.5156 0 -24.5098 -10.9961 -24.5098 -24.5107v-285.958h479.318zM471.148 401.702c4.5127 0 8.1709 -3.6582 8.1709 -8.16992v-261.447c0 -4.51172 -3.6582 -8.16992 -8.1709 -8.16992h-43.5742c-4.51172 0 -8.16992 3.6582 -8.16992 8.16992
c0 4.5127 3.6582 8.16992 8.16992 8.16992h35.4043v245.106h-413.957v-245.106h345.872c4.51172 0 8.16992 -3.65723 8.16992 -8.16992c0 -4.51172 -3.6582 -8.16992 -8.16992 -8.16992h-354.043c-4.51172 0 -8.16992 3.6582 -8.16992 8.16992v261.447
c0 4.51172 3.6582 8.16992 8.16992 8.16992h430.298z" />
    <glyph glyph-name="uniF144" unicode="&#xf144;" 
d="M502.594 340.856c12.541 -13.8857 12.541 -36.4102 0 -50.2959l-223.392 -246.746l-0.767578 -1.34375c-12.4766 -13.9502 -32.6963 -13.9502 -45.1758 0l-223.9 248.09c-12.4795 13.8857 -12.4795 36.4102 0 50.2959l0.128906 -0.128906
c5.82227 6.84766 13.9482 11.2627 23.0986 11.2627h446.842c8.95898 0 17.0234 -4.15918 22.7812 -10.8779z" />
    <glyph glyph-name="uniF140" unicode="&#xf140;" 
d="M0 448h512v-512h-512v512zM480 -32v448h-448v-448h448zM384 336l64.001 -64.001l-224 -224l-160.001 160.001l64 64l96 -96z" />
    <glyph glyph-name="uniF129" unicode="&#xf129;" 
d="M416 160h96s-96 -224 -256 -224c-166.4 0 -256 224 -256 224h96v-64s22.4004 -54.4004 128 -64v224h-70.4004c-3.19922 -9.59961 -12.7998 -16 -25.5996 -16c-19.2002 0 -32 12.7998 -32 32s12.7998 32 32 32c12.7998 0 22.4004 -6.40039 25.5996 -16h70.4004v41.5996
c-19.2002 9.60059 -32 32 -32 54.4004c0 35.2002 28.7998 64 64 64s64 -28.7998 64 -64c0 -22.4004 -12.7998 -44.7998 -32 -54.4004v-41.5996h70.4004c3.19922 9.59961 12.7998 16 25.5996 16c19.2002 0 32 -12.7998 32 -32s-12.7998 -32 -32 -32
c-9.59961 0 -19.2002 6.40039 -25.5996 16h-70.4004v-220.8c102.4 6.39941 128 60.7998 128 60.7998v64zM256 416c-19.2002 0 -32 -12.7998 -32 -32s12.7998 -32 32 -32s32 12.7998 32 32s-12.7998 32 -32 32z" />
    <glyph glyph-name="uniF13D" unicode="&#xf13d;" 
d="M426.413 428.441c11.29 0 20.4434 -9.15332 20.4434 -20.4443v-451.553c0 -11.291 -9.15332 -20.4453 -20.4443 -20.4453h-340.825c-11.291 0 -20.4443 9.1543 -20.4443 20.4453v451.553c0 11.291 9.15332 20.4453 20.4443 20.4453h46.8047
c3.76465 0 6.81543 -3.05078 6.81445 -6.81543l0.000976562 -75.8447c0 -22.5811 18.3066 -40.8936 40.8896 -40.8936h151.808c22.583 0 40.8896 18.3105 40.8896 40.8936l0.000976562 75.8438c-0.000976562 3.76465 3.0498 6.81543 6.81445 6.81543h46.8037z
M237.129 18.6631v65.4229c0 11.291 -9.1543 20.4453 -20.4453 20.4453h-65.4229c-11.291 0 -20.4453 -9.1543 -20.4453 -20.4453v-65.4229c0 -11.291 9.1543 -20.4453 20.4453 -20.4453h65.4229c11.291 0 20.4453 9.1543 20.4453 20.4453zM237.129 165.864v65.4229
c0 11.291 -9.1543 20.4453 -20.4453 20.4453h-65.4229c-11.291 0 -20.4453 -9.1543 -20.4453 -20.4453v-65.4229c0 -11.291 9.1543 -20.4453 20.4453 -20.4453h65.4229c11.291 0 20.4453 9.1543 20.4453 20.4453zM360.738 30.9307c11.291 0 20.4453 9.15332 20.4453 20.4443
s-9.1543 20.4453 -20.4453 20.4453h-73.5996c-11.291 0 -20.4453 -9.1543 -20.4453 -20.4453s9.1543 -20.4443 20.4453 -20.4443h73.5996zM360.738 178.132c11.291 0 20.4453 9.15234 20.4453 20.4443c0 11.291 -9.1543 20.4453 -20.4453 20.4453h-73.5996
c-11.291 0 -20.4453 -9.1543 -20.4453 -20.4453s9.1543 -20.4443 20.4453 -20.4443h73.5996zM180.096 325.333c-11.29 0 -20.4443 9.15234 -20.4453 20.4434v81.7783c0 11.291 9.1543 20.4453 20.4453 20.4453h151.808c11.291 0 20.4453 -9.1543 20.4453 -20.4453v-81.7773
c0 -11.291 -9.1543 -20.4443 -20.4453 -20.4443h-151.808z" />
    <glyph glyph-name="uniF101" unicode="&#xf101;" 
d="M110.073 192.004c0 9.17285 3.50195 18.3477 10.4912 25.3438l220.154 220.148c14.0039 14.0039 36.71 14.0039 50.709 0c13.998 -13.999 13.998 -36.7002 0 -50.7051l-194.802 -194.787l194.788 -194.795c13.998 -13.998 13.998 -36.7031 0 -50.7002
c-13.999 -14.0117 -36.6973 -14.0117 -50.7021 0l-220.155 220.145c-6.98828 7 -10.4834 16.1748 -10.4834 25.3506z" />
    <glyph glyph-name="uniF120" unicode="&#xf120;" 
d="M458.667 330.667c29.333 0 53.333 -24 53.333 -53.334v-234.666c0 -29.334 -24 -53.334 -53.333 -53.334h-405.334c-29.333 0 -53.333 24 -53.333 53.334v298.666c0 29.334 24 53.334 53.333 53.334h122.667c12.7998 0 25.0664 -4.80078 34.667 -12.8008l50.666 -43.1992
c6.40039 -5.33398 13.334 -8 21.334 -8h176zM490.667 42.667v234.666c0 17.6006 -14.4004 32 -32 32h-176c-12.7998 0 -25.0674 4.80078 -35.2002 13.334l-50.667 43.1992c-5.33301 4.80078 -13.333 7.4668 -20.7998 7.4668h-122.667c-17.5996 0 -32 -14.3994 -32 -32
v-266.666h336c5.86719 0 10.667 -4.80078 10.667 -10.667s-4.7998 -10.667 -10.667 -10.667h-336v-10.666c0 -17.6006 14.4004 -32 32 -32h405.334c17.5996 0 32 14.3994 32 32zM421.333 74.667c5.86719 0 10.667 -4.80078 10.667 -10.667s-4.7998 -10.667 -10.667 -10.667
h-16c-5.86621 0 -10.666 4.80078 -10.666 10.667s4.7998 10.667 10.666 10.667h16z" />
    <glyph glyph-name="uniF119" unicode="&#xf119;" 
d="M49.1104 149.266h176.636v-177.179l-50.4668 0.542969v72.7158l11.9385 27.1338l-136.75 -136.479l-38.2578 38.2578l136.207 136.479l-25.5049 -11.9395h-74.0723zM390.444 284.931h72.7158l0.543945 -50.4668h-177.18v176.636l50.4678 0.270508v-74.0732
l-11.9395 -25.7764l136.479 136.479l38.2578 -38.2578l-136.479 -136.75z" />
    <glyph glyph-name="uniF11D" unicode="&#xf11d;" 
d="M460.8 386.56c28.1602 0 51.2002 -23.04 51.2002 -51.1992v-286.721c0 -28.1592 -23.04 -51.1992 -51.2002 -51.1992h-409.6c-28.1602 0 -51.2002 23.04 -51.2002 51.1992v286.721c0 28.1592 23.04 51.1992 51.2002 51.1992h409.6zM491.52 73.2158v198.145
l-214.527 -96.2568c-6.65625 -2.55957 -13.8242 -4.0957 -20.9922 -4.0957s-14.3359 1.02441 -20.9922 4.0957l-214.527 96.2568v-202.752l104.96 109.567c3.58398 4.0957 10.2393 4.6084 14.3359 0.511719c4.0957 -3.58398 4.60742 -10.2393 0.511719 -14.3359
l-118.784 -123.903c3.58398 -12.7998 15.3604 -22.5283 29.6963 -22.5283h409.6c14.8486 0 27.6484 10.752 30.7197 25.0879l-68.0957 75.7764c-4.0957 4.0957 -3.58398 10.752 0.511719 14.3359c4.09668 4.0957 10.752 3.58398 14.3359 -0.511719zM491.52 293.376v41.9844
c0 16.8955 -13.8232 30.7197 -30.7197 30.7197h-409.6c-16.8965 0 -30.7197 -13.8242 -30.7197 -30.7197v-41.9844l222.72 -99.8398c8.19141 -3.58398 17.4082 -3.58398 25.5996 0zM391.168 154.112l-9.21582 10.2393c-4.09668 4.09668 -3.58398 10.752 0.511719 14.3359
c4.0957 4.09668 10.752 3.58398 14.3359 -0.511719l9.21582 -10.752c4.09668 -4.0957 3.58398 -10.752 -0.511719 -14.3359c-1.53613 -1.53613 -4.0957 -2.55957 -6.65625 -2.55957c-3.07129 0 -5.63184 1.53613 -7.67969 3.58398z" />
    <glyph glyph-name="uniF131" unicode="&#xf131;" 
d="M256 320c-35.2002 0 -64 28.7998 -64 64s28.7998 64 64 64s64 -28.7998 64 -64s-28.7998 -64 -64 -64zM256 256c35.2002 0 64 -28.7998 64 -64s-28.7998 -64 -64 -64s-64 28.7998 -64 64s28.7998 64 64 64zM256 64c35.2002 0 64 -28.7998 64 -64s-28.7998 -64 -64 -64
s-64 28.7998 -64 64s28.7998 64 64 64z" />
    <glyph glyph-name="uniF10D" unicode="&#xf10d;" 
d="M253.26 215.997c0 -11.6221 -9.50879 -21.1318 -21.1318 -21.1318h-210.79c-6.33984 0 -11.6221 2.6416 -15.8486 6.86816c-3.69824 4.22656 -5.81152 10.0371 -5.2832 15.8486c5.81152 124.678 105.131 223.998 230.865 230.338
c5.2832 0.527344 11.0947 -1.58496 15.3213 -5.2832c4.22559 -4.22656 6.86719 -10.0381 6.86719 -15.8496v-210.79zM232.128 426.787c-115.168 -5.81055 -205.507 -96.1494 -210.79 -210.79h210.79v210.79zM311.373 417.807
c119.923 -21.1318 206.035 -128.904 200.224 -250.941c-5.28223 -123.621 -106.716 -225.054 -230.865 -230.865h-11.0938c-117.282 0 -219.771 84.5273 -240.375 200.753c-1.05664 9.50879 1.58496 19.0186 7.39551 25.8867
c5.81152 6.86719 14.793 11.0938 24.3018 11.0938h202.866c5.81152 0 10.5654 4.75488 10.5654 10.5664v202.865c0 9.50977 4.22656 18.4902 11.623 24.3018c6.86816 5.81152 16.377 8.45312 25.3584 6.33984zM490.465 167.922
c5.2832 111.471 -73.4326 209.734 -183.318 229.281c-3.69824 0.52832 -6.86816 -1.05664 -7.9248 -2.11328c-2.11328 -2.11328 -3.69824 -4.75488 -3.69824 -7.9248v-202.865c0 -17.4346 -14.2637 -31.6982 -31.6973 -31.6982h-202.338
c-3.69824 0 -6.33984 -1.05664 -8.45215 -3.69824c-2.11328 -2.6416 -3.16992 -5.81152 -2.6416 -8.98047c19.0186 -108.829 118.338 -187.546 229.28 -182.791c113.056 5.2832 206.036 98.2627 210.79 210.79zM366.844 34.791
c36.9805 24.8301 62.3389 61.8115 72.377 104.075c1.58496 5.81055 6.86719 8.98047 12.6787 7.92383s8.98145 -6.86719 7.9248 -12.6787c-10.5664 -47.5469 -39.6221 -89.2822 -80.8291 -117.282c-1.58496 -1.05664 -3.69824 -1.58496 -5.81152 -1.58496
c-3.69824 0 -6.86816 1.58496 -8.98145 4.75488c-3.16992 4.75488 -2.11328 11.623 2.6416 14.792zM328.278 14.7158c5.2832 2.6416 11.6221 0 13.207 -5.81055c2.11328 -5.2832 -0.52832 -11.623 -5.81055 -13.7363c-3.69824 -1.58496 -6.86816 -3.16992 -11.623 -4.22559
c-0.52832 -0.52832 -1.58496 -0.52832 -2.6416 -0.52832c-4.22656 0 -8.98047 3.16895 -10.0371 7.92383c-1.58496 5.81152 1.58496 11.623 7.39551 13.208c3.69824 1.05566 6.33984 2.1123 9.50977 3.16895z" />
    <glyph glyph-name="uniF12B" unicode="&#xf12b;" 
d="M128 448h384v-128h-384v128zM128 256h384v-128h-384v128zM128 64h384v-128h-384v128zM32 448h32v-128h-32v99.2002l-22.4004 -9.60059l-6.39941 22.4004zM70.4004 3.2002c12.7998 -3.2002 19.1992 -16 19.1992 -28.7998c0 -22.4004 -19.1992 -38.4004 -51.1992 -38.4004
c-16 0 -28.8008 3.2002 -35.2002 9.59961h-3.2002v28.8008l3.2002 -3.2002c3.2002 0 12.7998 -6.40039 25.5996 -6.40039s19.2002 6.40039 19.2002 12.7998c0 9.60059 -9.59961 12.8008 -19.2002 12.8008h-12.7998v22.3994h12.7998c3.2002 0 19.2002 0 19.2002 12.7998
c0 6.40039 -3.2002 9.60059 -12.7998 9.60059c-9.60059 0 -19.2002 -3.2002 -22.4004 -6.40039l-3.2002 -3.2002l-6.39941 25.6006h3.2002c6.39941 6.39941 22.3994 9.59961 38.3994 9.59961c28.7998 0 41.6006 -16 41.6006 -32c0 -9.59961 -6.40039 -19.2002 -16 -25.5996z
M3.2002 243.2c0 0 70.3994 38.3994 86.3994 -22.4004c6.40039 -22.3994 -12.7998 -44.7998 -32 -60.7998h38.4004v-32h-96v16s86.4004 51.2002 51.2002 76.7998c-16 9.60059 -38.4004 -9.59961 -38.4004 -9.59961z" />
    <glyph glyph-name="uniF12C" unicode="&#xf12c;" 
d="M502.4 -9.59961c12.7998 -12.8008 12.7998 -32 0 -41.6006c-6.40039 -6.39941 -16 -9.59961 -22.4004 -9.59961s-16 3.2002 -22.4004 9.59961l-134.399 134.4c-9.60059 6.39941 -9.60059 16 -9.60059 25.5996c-32 -28.7998 -76.7998 -44.7998 -121.6 -44.7998
c-105.6 0 -192 86.4004 -192 192s86.4004 192 192 192s192 -86.4004 192 -192c0 -44.7998 -16 -89.5996 -41.5996 -121.6c9.59961 0 19.1992 -3.2002 25.5996 -9.60059zM192 112c80 0 144 64 144 144s-64 144 -144 144s-144 -64 -144 -144s64 -144 144 -144z" />
    <glyph glyph-name="uniF137" unicode="&#xf137;" 
d="M256 448c140.8 0 256 -115.2 256 -256s-115.2 -256 -256 -256s-256 115.2 -256 256s115.2 256 256 256zM256 -12.7998c112.64 0 204.8 92.1602 204.8 204.8s-92.1602 204.8 -204.8 204.8s-204.8 -92.1602 -204.8 -204.8s92.1602 -204.8 204.8 -204.8z" />
    <glyph glyph-name="uniF145" unicode="&#xf145;" 
d="M404.758 438.503c6.91406 -5.75977 11.2656 -13.8887 11.2656 -23.04v-446.997c0 -8.89648 -4.22559 -16.9619 -10.8809 -22.7207l-0.255859 -0.384766c-13.9531 -12.4814 -36.417 -12.4814 -50.3057 0l-246.859 223.435l-1.28125 0.767578
c-13.9531 12.417 -13.9531 32.6416 0 45.123l248.141 224.011c13.8887 12.417 36.3525 12.417 50.3057 -0.0644531z" />
    <glyph glyph-name="uniF100" unicode="&#xf100;" 
d="M255.999 46.0732c-9.17578 0 -18.3506 3.50391 -25.3467 10.4961l-220.148 220.15c-14.0039 14.0049 -14.0039 36.71 0 50.709c13.999 13.998 36.7002 13.998 50.7051 0l194.79 -194.802l194.792 194.795c14.0039 13.998 36.7031 13.998 50.7002 0
c14.0117 -13.999 14.0117 -36.7041 0 -50.709l-220.145 -220.15c-7 -6.99414 -16.1748 -10.4893 -25.3477 -10.4893z" />
    <glyph glyph-name="uniF134" unicode="&#xf134;" 
d="M411.498 -64c-21.3027 0 -47.0312 5.33887 -75.3252 16.0156c-62.0303 23.3857 -129.52 69.6074 -190.035 130.122c-60.5312 60.5322 -106.753 128.039 -130.156 190.069c-21.2686 56.3994 -21.3203 102.689 -0.121094 123.871
c3.04883 3.04883 6.14844 6.32031 9.35156 9.69531c19.3389 20.3389 41.1924 43.2256 70.1582 42.1924c19.96 -0.827148 39.2988 -13.2256 59.1025 -37.8691c58.5176 -72.7764 32.1348 -98.7119 1.60156 -128.779l-5.38965 -5.33887
c-4.99414 -4.99414 -14.4316 -28.1221 73.3613 -115.915c28.6562 -28.6562 53.0928 -49.6309 72.6221 -62.3232c12.2959 -7.99023 34.2871 -20.0801 43.3105 -11.0557l5.4248 5.47656c30.0332 30.4639 55.9688 56.7607 128.693 -1.70508
c24.6436 -19.8047 37.0254 -39.127 37.8516 -59.1201c1.18848 -28.9482 -21.8711 -50.8535 -42.2256 -70.1758c-3.3584 -3.20312 -6.63086 -6.30273 -9.67871 -9.33398c-10.5225 -10.5391 -27.3467 -15.8262 -48.5459 -15.8262zM93.3037 430.779
c-20.5791 0 -39.1602 -19.5635 -55.6064 -36.8711c-3.30664 -3.47852 -6.50977 -6.85352 -9.66113 -10.0049c-15.792 -15.7744 -14.1904 -57.2256 4.06348 -105.635c22.5605 -59.791 67.3867 -125.128 126.231 -183.973c58.8271 -58.8096 124.129 -103.636 183.938 -126.179
c48.4092 -18.2891 89.8604 -19.8389 105.617 -4.08105c3.15137 3.15137 6.52734 6.35449 10.0059 9.64355c17.6855 16.8076 37.748 35.8545 36.8701 56.9844c-0.602539 14.5176 -11.1768 30.1367 -31.4287 46.4111c-60.6006 48.7354 -77.5459 31.5312 -105.651 3.03125
l-5.51074 -5.5625c-13.4326 -13.4502 -35.251 -10.4707 -64.8721 8.78223c-20.5439 13.3633 -45.9277 35.0967 -75.4102 64.5967c-72.8633 72.8447 -96.1631 117.431 -73.3623 140.282l5.49316 5.4248c28.5703 28.1055 45.8086 45.0684 -2.94434 105.703
c-16.3086 20.2354 -31.9111 30.8086 -46.4277 31.4287c-0.448242 0.0175781 -0.895508 0.0175781 -1.34375 0.0175781z" />
    <glyph glyph-name="uniF102" unicode="&#xf102;" 
d="M391.429 166.653l-220.152 -220.145c-14.0039 -14.0117 -36.71 -14.0117 -50.707 0c-13.999 13.998 -13.999 36.7031 0 50.7002l194.8 194.795l-194.794 194.788c-13.999 14.0039 -13.999 36.7061 0 50.7051c13.998 14.0039 36.7031 14.0039 50.707 0l220.152 -220.148
c6.99902 -7.00293 10.4941 -16.1709 10.4941 -25.3438c0.000976562 -9.17676 -3.50195 -18.3516 -10.5 -25.3516z" />
    <glyph glyph-name="uniF124" unicode="&#xf124;" 
d="M110.936 226.213c4.71094 0 8.53418 -3.82227 8.5332 -8.5332v-51.2012c0 -4.70996 -3.82324 -8.5332 -8.5332 -8.5332s-8.5332 3.82324 -8.5332 8.5332v51.2012c0 4.71094 3.82324 8.5332 8.5332 8.5332zM111.857 445.696
c22.3916 8.42969 41.7461 -7.47656 41.7461 -31.7461v-443.837c0 -19.7549 -12.4502 -34.0908 -29.6025 -34.0908c-3.94336 0 -7.9707 0.767578 -11.9814 2.28613l-81.0596 32.4277c-22.5117 8.34668 -30.96 19.7637 -30.96 42.0625v358.484
c0 22.2979 8.44824 33.7158 31.1729 42.1299zM136.536 -29.8867v443.837c0 10.1816 -5.04297 17.0166 -12.5449 17.0166c-1.86816 0 -3.87402 -0.401367 -5.95605 -1.18652l-80.7266 -32.29c-16.3076 -6.04199 -20.2412 -11.1709 -20.2412 -26.207v-358.484
c0 -15.0361 3.93359 -20.1738 20.0361 -26.1387l81.0938 -32.4531c1.91992 -0.716797 3.93457 -1.11719 5.80371 -1.11719c7.5 0 12.5352 6.84375 12.5352 17.0234zM178.137 396.884c-4.70996 0 -8.5332 3.82422 -8.5332 8.53418s3.82324 8.5332 8.5332 8.5332h120.535
c23.5273 0 42.667 -19.1416 42.667 -42.668v-128.003c0 -4.70996 -3.81348 -8.5332 -8.5332 -8.5332c-4.71875 0 -8.53223 3.82324 -8.53223 8.5332v128.003c0 14.1143 -11.4863 25.6006 -25.6006 25.6006h-120.536zM332.807 149.411
c4.71973 0 8.5332 -3.82227 8.53516 -8.53125v-128.003c0 -23.5273 -19.1416 -42.668 -42.668 -42.668h-119.47c-4.70996 0 -8.5332 3.82324 -8.5332 8.5332s3.82324 8.5332 8.5332 8.5332h119.47c14.1143 0 25.6006 11.4863 25.6006 25.6006v128.003
c0 4.70996 3.81348 8.53223 8.53223 8.53223zM511.354 195.34c0.862305 -2.08301 0.862305 -4.43848 0 -6.51953c-0.43457 -1.0498 -1.05762 -1.98828 -1.85156 -2.78223l-85.3271 -85.3262c-1.66406 -1.66406 -3.84766 -2.5 -6.0332 -2.5
c-2.18359 0 -4.36914 0.835938 -6.0332 2.5c-3.33691 3.33594 -3.33691 8.72852 0 12.0654l70.7695 70.7695h-286.606c-4.70996 0 -8.5332 3.82324 -8.5332 8.5332c0 4.71094 3.82324 8.5332 8.5332 8.5332h286.605l-70.7686 70.7773
c-3.33691 3.33594 -3.33691 8.72852 0 12.0654s8.72949 3.33691 12.0664 0l85.3271 -85.334c0.793945 -0.794922 1.41699 -1.73242 1.85156 -2.78223z" />
    <glyph glyph-name="uniF123" unicode="&#xf123;" 
d="M372.363 261.818c-25.5996 0 -46.5449 20.9453 -46.5449 46.5449c0 25.6006 20.9453 46.5459 46.5449 46.5459c25.6006 0 46.5459 -20.9453 46.5459 -46.5459c0 -25.5996 -20.9453 -46.5449 -46.5459 -46.5449zM372.363 331.637
c-12.7998 0 -23.2725 -10.4727 -23.2725 -23.2734c0 -12.7998 10.4727 -23.2725 23.2725 -23.2725c12.8008 0 23.2734 10.4727 23.2734 23.2725c0 12.8008 -10.4727 23.2734 -23.2734 23.2734zM428.218 226.327c5.81836 -3.49121 8.14551 -10.4727 4.07324 -15.127
c-4.07324 -8.14551 -9.89062 -15.709 -17.4551 -23.2725c-18.0361 -18.0371 -40.1445 -28.5098 -65.1631 -31.4189h-1.16406c-5.81738 0 -11.0547 4.65527 -11.6357 10.4727c-0.582031 6.40039 4.07227 12.2188 10.4727 12.8008
c19.7812 1.74512 37.2363 10.4727 51.2002 24.4355c6.39941 5.81836 11.0537 11.6367 13.9629 17.4551s9.8916 7.56348 15.709 4.6543zM338.618 448c96 0 173.382 -79.127 173.382 -175.127s-78.5459 -174.546 -174.546 -174.546
c-22.6904 0 -44.7998 4.07324 -64.5811 12.2188l-48.873 -48.873c-1.74512 -1.16406 -3.49121 -2.32715 -5.81836 -2.90918l-12.7998 -2.32715l-2.32715 -12.7998c0 -2.32715 -1.16406 -4.07324 -2.90918 -5.81836l-16.291 -16.291
c-1.16309 -1.16406 -2.90918 -2.32715 -5.23633 -2.90918l-26.1816 -6.40039l-6.40039 -26.1816c-0.582031 -1.74512 -1.16309 -3.49023 -2.90918 -5.23633l-30.8359 -30.8359c-8.14551 -8.72754 -19.7822 -13.9639 -32.582 -13.9639h-68.0723
c-6.40039 0 -11.6367 5.23633 -11.6367 11.6367v68.0723c0 11.6367 5.23633 23.8545 13.9639 32.582l161.745 162.327c-7.56348 19.7822 -11.6367 40.7275 -11.6367 62.8359c0 96 78.5459 174.546 174.546 174.546zM211.2 81.4541l40.7275 40.7275
c-27.3457 15.709 -50.0371 38.9824 -65.7461 66.3271l-155.927 -157.673c-4.07324 -4.6543 -6.98242 -10.4727 -6.98242 -16.29v-56.4365h55.8545c4.07324 0 10.4727 1.16309 15.709 6.98145l29.0918 29.0908l7.56348 30.2549
c1.16309 4.6543 4.6543 7.56348 8.72656 8.72754l30.2549 7.56348l11.6367 11.6357l2.90918 16.291c1.16309 4.6543 4.6543 8.14551 9.30859 9.30957zM338.618 122.182c83.2002 0 151.272 68.0732 151.854 151.272c0 83.2002 -68.0723 151.273 -151.272 151.273
s-151.272 -68.0732 -151.272 -151.273c0 -20.3633 4.07227 -40.1455 11.6357 -58.1816c0.582031 -1.74512 1.16406 -2.90918 1.74609 -4.6543c23.8545 -52.3633 76.2178 -88.4365 137.309 -88.4365z" />
    <glyph glyph-name="uniF10C" unicode="&#xf10c;" 
d="M502.519 -7.11133c5.21484 0 9.48145 -4.2666 9.48145 -9.48145s-4.2666 -9.48145 -9.48145 -9.48145h-493.037c-5.21484 0 -9.48145 4.2666 -9.48145 9.48145s4.2666 9.48145 9.48145 9.48145h28.4443v123.26c0 15.6445 12.7998 28.4443 28.4443 28.4443h75.8525
c15.6436 0 28.4443 -12.7998 28.4443 -28.4443v-123.26h18.9629v256c0 15.6445 12.7998 28.4443 28.4443 28.4443h75.8516c15.6445 0 28.4443 -12.7998 28.4443 -28.4443v-256h18.9629v388.741c0 15.6445 12.8008 28.4443 28.4443 28.4443h75.8525
c15.6445 0 28.4443 -12.7998 28.4443 -28.4443v-388.741h28.4443zM151.704 -7.11133v123.26c0 5.21484 -4.2666 9.48145 -9.48145 9.48145h-75.8525c-5.21484 0 -9.48145 -4.2666 -9.48145 -9.48145v-123.26h94.8154zM303.407 -7.11133v256
c0 5.21484 -4.2666 9.48145 -9.48145 9.48145h-75.8516c-5.21484 0 -9.48145 -4.2666 -9.48145 -9.48145v-256h94.8145zM455.111 -7.11133v388.741c0 5.21484 -4.2666 9.48145 -9.48145 9.48145h-75.8525c-5.21484 0 -9.48145 -4.2666 -9.48145 -9.48145v-388.741h94.8154z
" />
    <glyph glyph-name="uniF118" unicode="&#xf118;" 
d="M214.4 -64h-44.8008l342.4 342.4v-44.8008zM310.4 -64h-44.8008l246.4 246.4v-44.8008zM406.4 -64h-44.8008l150.4 150.4v-44.8008zM502.4 -64h-44.8008l54.4004 54.4004v-44.8008z" />
    <glyph glyph-name="uniF13C" unicode="&#xf13c;" 
d="M376.247 141.384c9.3623 0 17.4561 1.46387 24.2832 4.38867c6.82715 2.92871 12.4834 6.73047 16.9688 11.4141c4.4834 4.68066 7.80273 10.0449 9.94531 16.0918c2.14551 6.04297 3.21777 12.1904 3.21777 18.4287c0 8.19238 -1.36523 15.2139 -4.0957 21.0654
c-2.72852 5.85156 -6.33887 10.8252 -10.8223 14.9209c-4.48633 4.09668 -9.26465 7.41211 -14.3359 9.94727l-14.6289 7.31445c-6.24121 2.73145 -11.0205 5.07129 -14.3359 7.02246c-3.31543 1.9502 -4.97363 4.0957 -4.97363 6.43652
c0 3.90039 1.46289 6.33887 4.38867 7.31348c2.92871 0.975586 4.97363 1.46289 6.14355 1.46289c9.75293 0 17.5547 -3.31543 23.4062 -9.94727c2.72852 -1.9502 5.26562 -2.73047 7.60645 -2.34082c2.72949 0 4.87598 1.36621 6.43359 4.09668l11.1182 17.5537
c2.73047 3.90137 2.34082 7.60742 -1.16992 11.1182c-12.0938 12.0928 -27.6973 18.1396 -46.8115 18.1396c-15.6045 0 -28.3799 -4.58398 -38.3271 -13.751s-14.9209 -20.7725 -14.9209 -34.8164c0 -8.19141 1.36816 -15.0186 4.0957 -20.4795
c2.73047 -5.46191 6.24121 -10.1426 10.5352 -14.0439c4.28809 -3.90039 8.97266 -7.11914 14.0439 -9.6543c5.07129 -2.53613 9.94727 -4.7793 14.6279 -6.72949c7.02539 -3.12109 12.1904 -5.85156 15.5098 -8.19238c3.31543 -2.33984 4.9707 -5.07129 4.9707 -8.19141
c0 -6.63184 -4.4834 -9.94727 -13.4551 -9.94727c-10.5361 0 -19.5049 4.09473 -26.917 12.29c-1.56055 1.9502 -3.90137 2.9248 -7.02148 2.9248c-3.51074 0 -5.85156 -1.36523 -7.02441 -4.09473l-11.7002 -18.1426
c-2.34082 -3.90039 -2.14551 -7.60742 0.582031 -11.1182c13.6533 -13.6533 31.208 -20.4805 52.6631 -20.4805zM258.633 141.384c9.3623 0 17.5547 1.46387 24.5762 4.38867c7.02148 2.92871 12.7754 6.73047 17.2617 11.4141
c4.48633 4.68066 7.80176 10.0449 9.94727 16.0918c2.14551 6.04297 3.21875 12.1904 3.21875 18.4287c0 8.19238 -1.46289 15.2139 -4.3916 21.0654c-2.92578 5.85156 -6.53418 10.8252 -10.8223 14.9209c-4.29102 4.09668 -9.06934 7.41211 -14.3359 9.94727
c-5.2666 2.53613 -10.2402 4.97461 -14.9209 7.31445c-5.84863 2.73145 -10.5332 5.07129 -14.0439 7.02246c-3.51074 1.9502 -5.26562 4.0957 -5.26562 6.43652c0 3.90039 1.46289 6.33887 4.3877 7.31348c2.92578 0.975586 5.16895 1.46289 6.72949 1.46289
c9.75293 0 17.5518 -3.31543 23.4053 -9.94727c1.9502 -2.34082 4.48535 -3.12012 7.60645 -2.34082c2.34082 0 4.48633 1.36621 6.43652 4.09668l11.1182 17.5537c2.72852 3.90137 2.33984 7.60742 -1.17383 11.1182c-12.0908 12.0928 -27.6963 18.1396 -46.8115 18.1396
c-15.6025 0 -28.3789 -4.58398 -38.3232 -13.751c-9.94824 -9.16699 -14.9219 -20.7725 -14.9219 -34.8164c0 -8.19141 1.36523 -15.0186 4.09668 -20.4795c2.73047 -5.46191 6.24121 -10.1426 10.5322 -14.0439c4.29102 -3.90039 8.875 -7.11914 13.751 -9.6543
c4.87598 -2.53613 9.6543 -4.7793 14.3359 -6.72949c7.41211 -3.12109 12.7754 -5.85156 16.0918 -8.19238c3.31543 -2.33984 4.97363 -5.07129 4.97363 -8.19141c0 -6.63184 -4.48633 -9.94727 -13.459 -9.94727c-10.9219 0 -19.8945 4.09473 -26.916 12.29
c-1.56055 1.9502 -4.0957 2.9248 -7.60742 2.9248c-3.12012 0 -5.26562 -1.36523 -6.43652 -4.09473l-12.2881 -18.1426c-2.33984 -4.28906 -1.9502 -7.99707 1.1709 -11.1182c12.874 -13.6533 30.2334 -20.4805 52.0781 -20.4805zM192.512 179.42
c1.1709 2.33887 1.1709 4.67969 0 7.02148c-0.780273 2.33984 -2.33984 3.90039 -4.68066 4.68066l-19.3096 8.77637c-2.34082 1.16992 -4.68164 1.16992 -7.02246 0c-2.73047 -1.16992 -4.29102 -2.92578 -4.68066 -5.2666
c-0.780273 -1.9502 -2.53613 -4.87695 -5.2666 -8.77734c-2.73047 -3.90137 -6.82617 -5.84863 -12.2881 -5.84863c-7.41113 0 -13.458 3.99805 -18.1387 11.9951c-4.68164 7.99707 -7.02246 18.4297 -7.02246 31.3047c0 12.874 2.34082 23.4062 7.02246 31.5977
c4.68066 8.19238 10.7275 12.2861 18.1387 12.2861c4.68164 0 8.3877 -1.55957 11.1182 -4.68066s4.87598 -6.24121 6.43652 -9.3623c1.16992 -2.34082 2.92578 -3.90137 5.2666 -4.68164c2.33984 -0.779297 4.48535 -0.779297 6.43652 0l19.3096 8.77734
c2.73047 1.1709 4.29102 2.92578 4.68066 5.2666c0.780273 2.73047 0.584961 5.07129 -0.584961 7.02148c-11.3125 24.1865 -28.8672 36.2793 -52.6631 36.2793c-19.8945 0 -35.9863 -7.60742 -48.2744 -22.8213c-12.2871 -15.2129 -18.4316 -35.1084 -18.4316 -59.6846
c0 -24.5752 6.14453 -44.3721 18.4316 -59.3916c12.2881 -15.0176 28.3799 -22.5293 48.2744 -22.5293c23.7959 0.000976562 41.5459 12.6787 53.248 38.0371zM494.445 438.637c5.07422 0 9.26562 -1.6582 12.5811 -4.97363s4.97363 -7.50977 4.97363 -12.5811v-367.469
c0 -3.51074 -1.07227 -6.82715 -3.21875 -9.94727c-2.14551 -3.11914 -4.77832 -5.26562 -7.89941 -6.43457l-237.567 -90.6973c-1.56348 -0.780273 -3.70898 -1.1709 -6.43652 -1.1709c-2.73047 0 -4.87598 0.388672 -6.43652 1.1709l-238.738 90.6963
c-3.51074 1.17188 -6.33887 3.31738 -8.48438 6.43457c-2.14551 3.12305 -3.21875 6.4375 -3.21875 9.94824v367.469c0 5.07129 1.75586 9.26562 5.2666 12.5811s7.60645 4.97363 12.2881 4.97363h476.891v0z" />
    <glyph glyph-name="uniF126" unicode="&#xf126;" 
d="M352 448h96v-512h-96v224h-192v-224h-96v512h96v-224h192v224z" />
    <glyph glyph-name="uniF10E" unicode="&#xf10e;" 
d="M455.111 391.111h-398.223v-398.223h398.223v398.223zM455.111 448v0c31.2891 0 56.8887 -25.5996 56.8887 -56.8887v-398.223c0 -31.2891 -25.5996 -56.8887 -56.8887 -56.8887h-398.223c-31.2891 0 -56.8887 25.5996 -56.8887 56.8887v398.223
c0 31.2891 25.5996 56.8887 56.8887 56.8887h398.223z" />
    <glyph glyph-name="uniF107" unicode="&#xf107;" 
d="M504.155 184.163h-496.311c-4.33008 0 -7.84473 3.51465 -7.84473 7.84473s3.51465 7.84473 7.84473 7.84473h496.311c4.33008 0 7.84473 -3.51465 7.84473 -7.84473s-3.51465 -7.84473 -7.84473 -7.84473zM204.533 -12.5098
c-2.00781 0 -4.0166 0.768555 -5.55371 2.29102l-196.688 196.704c-1.45996 1.47461 -2.29102 3.46777 -2.29102 5.55371c0 2.08691 0.831055 4.0791 2.29102 5.55371l196.704 196.61c3.05957 3.05957 8.03223 3.05957 11.0918 0
c3.05957 -3.05859 3.05957 -8.03223 0 -11.0918l-191.15 -191.072l191.15 -191.15c3.05957 -3.05957 3.05957 -8.0332 0 -11.0918c-1.53711 -1.53809 -3.5459 -2.30664 -5.55371 -2.30664z" />
    <glyph glyph-name="uniF122" unicode="&#xf122;" 
d="M256 416c-124.8 0 -224 -99.2002 -224 -224s99.2002 -224 224 -224s224 99.2002 224 224s-99.2002 224 -224 224zM256 448v0c140.8 0 256 -115.2 256 -256s-115.2 -256 -256 -256s-256 115.2 -256 256s115.2 256 256 256zM224 256h64v-224h-64v224zM224 352h64v-64h-64
v64z" />
    <glyph glyph-name="uniF139" unicode="&#xf139;" 
d="M483.479 278.726c5.76367 -50.6484 -8.53906 -100.505 -40.293 -140.385c-36.415 -45.7666 -90.8896 -72.0215 -149.444 -72.0215c-43.5273 0 -84.5703 14.3486 -118.704 41.5195c-39.8887 31.7363 -65.0234 77.1064 -70.7871 127.755
c-5.76367 50.6494 8.54883 100.505 40.2939 140.394c36.4062 45.7666 90.8809 72.0127 149.436 72.0127c43.5273 0 84.5781 -14.3477 118.712 -41.5107c39.8877 -31.7441 65.0234 -77.1143 70.7871 -127.764zM429.401 149.305
c28.8105 36.2051 41.792 81.4521 36.5732 127.429c-5.22559 45.9697 -28.043 87.1455 -64.2471 115.955c-30.9873 24.6592 -68.2402 37.6855 -107.741 37.6855c-53.1611 0 -102.603 -23.8311 -135.651 -65.3672c-28.8096 -36.1963 -41.791 -81.46 -36.5654 -127.43
s28.043 -87.1533 64.2471 -115.955c30.9785 -24.6504 68.2324 -37.6846 107.732 -37.6846c53.1514 0 102.595 23.8311 135.652 65.3672zM389.31 362.944c-3.03125 -3.80664 -8.57422 -4.42383 -12.3896 -1.41797c-57.5596 45.8018 -141.646 36.2314 -187.438 -21.3193
c-22.1924 -27.876 -32.1953 -62.7324 -28.167 -98.1348c4.02734 -35.3945 21.5918 -67.1123 49.4766 -89.2949c3.80859 -3.03223 4.44238 -8.5752 1.41113 -12.3828c-1.74609 -2.18457 -4.30957 -3.32227 -6.90137 -3.32227c-1.9209 0 -3.85938 0.625977 -5.48145 1.91309
c-31.5596 25.1162 -51.4502 61.0303 -56.0166 101.104c-4.55664 40.0732 6.76953 79.5293 31.8857 111.099c51.8477 65.1631 147.039 75.9941 212.211 24.1387c3.80762 -3.03223 4.44238 -8.5752 1.41016 -12.3828zM398.247 174.088
c3.03125 3.80664 8.5752 4.4502 12.3906 1.41113c3.80762 -3.02246 4.44238 -8.5752 1.41016 -12.3828c-8.9707 -11.2803 -19.4492 -21.1865 -31.1445 -29.4355c-1.55176 -1.08398 -3.32227 -1.61328 -5.07715 -1.61328c-2.7666 0 -5.49023 1.2959 -7.20898 3.72754
c-2.81055 3.9834 -1.85938 9.48242 2.11621 12.2852c10.3281 7.28027 19.582 16.04 27.5137 26.0078zM47.5449 -52.3926c-24.1562 19.2295 -27.1533 55.8047 -6.68945 81.5303l82.8877 104.154c3.04102 3.80762 8.5752 4.43359 12.3828 1.41016
c3.80762 -3.03223 4.44141 -8.5752 1.41016 -12.3828l-82.8789 -104.154c-14.4277 -18.1191 -12.6816 -43.5811 3.86914 -56.7646c7.92285 -6.30176 18.0586 -8.88477 28.5723 -7.31543c10.7432 1.62207 20.5518 7.41211 27.6113 16.2871l82.8701 104.155
c3.03223 3.80762 8.5752 4.43359 12.3828 1.41016c3.80762 -3.03223 4.44238 -8.5752 1.41113 -12.3828l-82.8701 -104.154c-9.84473 -12.374 -23.6113 -20.4473 -38.7695 -22.7383c-2.91797 -0.44043 -5.81738 -0.661133 -8.69043 -0.661133
c-12.2764 0 -23.9365 3.99219 -33.499 11.6064z" />
    <glyph glyph-name="uniF108" unicode="&#xf108;" 
d="M504.155 184.163h-496.311c-4.33008 0 -7.84473 3.51465 -7.84473 7.84473s3.51465 7.84473 7.84473 7.84473h496.311c4.33008 0 7.84473 -3.51465 7.84473 -7.84473s-3.51465 -7.84473 -7.84473 -7.84473zM307.467 -12.5098
c-2.00781 0 -4.0166 0.768555 -5.55371 2.29102c-3.05957 3.05859 -3.05957 8.03223 0 11.0918l191.15 191.15l-191.15 191.088c-3.05957 3.05957 -3.05957 8.0332 0 11.0918c3.05957 3.05957 8.03223 3.05957 11.0918 0l196.688 -196.626
c1.47559 -1.47461 2.29102 -3.4668 2.29102 -5.55371s-0.832031 -4.0791 -2.29102 -5.55371l-196.688 -196.673c-1.52148 -1.53809 -3.53027 -2.30664 -5.53809 -2.30664z" />
    <glyph glyph-name="uniF10F" unicode="&#xf10f;" 
d="M455.111 448c31.2891 0 56.8887 -25.5996 56.8887 -56.8887v-398.223c0 -31.2891 -25.5996 -56.8887 -56.8887 -56.8887h-398.223c-31.2891 0 -56.8887 25.5996 -56.8887 56.8887v398.223c0 31.2891 25.5996 56.8887 56.8887 56.8887h398.223zM199.111 49.7773l256 256
l-39.8223 39.8223l-216.178 -216.178l-102.4 102.4l-39.8223 -39.8223z" />
    <glyph glyph-name="uniF13A" unicode="&#xf13a;" 
d="M161.473 285.022c4.51367 -3.50977 5.5166 -9.52832 2.00586 -14.041c-0.500977 -1.00293 -1.50391 -2.50781 -2.50684 -3.51074s-2.00586 -2.00586 -2.50781 -3.00879c-2.00586 -2.50684 -5.01465 -4.01172 -8.02344 -4.01172
c-2.00586 0 -4.01172 0.501953 -6.01758 2.00586c-4.5127 3.51074 -5.51562 9.52832 -2.00586 14.042c0.501953 1.00195 1.50488 2.50684 2.50781 3.50977s2.00586 2.00586 2.50684 3.00879c3.51074 4.51367 9.52832 5.5166 14.041 2.00586zM135.396 191.749
c0 -25.5742 7.02051 -49.1436 20.0586 -69.2021c3.51074 -4.51367 2.00586 -11.0322 -2.50684 -14.041c-1.50488 -1.00391 -3.51074 -1.50488 -5.5166 -1.50488c-3.50977 0 -6.51855 1.50488 -8.52441 4.51367c-15.5459 23.5684 -24.0703 51.6514 -24.0703 80.7363
c0 13.0381 2.00586 26.0762 5.01465 37.6104c1.50391 5.51562 7.02051 8.52441 12.5361 7.02051c5.5166 -1.50488 8.52539 -7.02051 7.02051 -12.5371c-2.50684 -10.0293 -4.01172 -21.5635 -4.01172 -32.5957zM260.764 271.984
c44.1299 0 80.2354 -36.1055 80.2354 -80.2354c0 -44.1289 -36.1055 -80.2344 -80.2354 -80.2344c-44.1289 0 -80.2344 36.1055 -80.2344 80.2344c0 44.1299 36.1055 80.2354 80.2344 80.2354zM260.764 131.573c33.0977 0 60.1768 27.0791 60.1768 60.1758
c0 33.0977 -27.0791 60.1768 -60.1768 60.1768c-33.0967 0 -60.1758 -27.0791 -60.1758 -60.1768c0 -33.0967 27.0791 -60.1758 60.1758 -60.1758zM496.454 228.356c9.02637 -2.00586 15.0439 -10.0293 15.5459 -19.0557v-35.1025
c0 -5.01465 -2.50781 -10.0293 -6.01758 -13.54c-3.00879 -3.00879 -7.02051 -4.5127 -11.5342 -4.5127l-51.1494 -14.543c-4.01172 -13.54 -9.02637 -27.0791 -16.0469 -40.1172l27.0791 -49.1445c4.51367 -7.52148 3.51074 -17.5518 -3.00879 -24.0703l-24.5723 -24.5723
c-6.01758 -6.01758 -15.5449 -7.52148 -23.5684 -3.50977l-46.6367 26.0762c-14.543 -8.52539 -29.0859 -15.5459 -44.6309 -20.0586l-15.5459 -54.1592c-2.00586 -9.02637 -10.0293 -15.0439 -19.0557 -15.0439h-35.1025c-9.02637 0 -17.0508 6.01758 -19.0566 15.0439
l-14.542 50.6484c-18.0527 4.51367 -35.1025 11.5342 -50.1475 20.0586l-47.6396 -26.5771c-7.52148 -4.51367 -17.5508 -3.51074 -24.0703 3.00879l-24.5713 24.5713c-6.01855 6.01758 -7.52246 15.5459 -3.51074 23.5693l27.0791 48.1406
c-8.02344 14.042 -14.542 29.0859 -18.5537 44.6309l-52.1533 15.5459c-9.02637 2.00586 -15.0439 10.0293 -15.0439 19.0557v35.1025c0 9.02637 6.01758 17.0508 15.0439 19.0566l52.6543 15.0439c4.51367 18.0527 12.0352 34.6016 21.0615 49.6455l-24.5713 46.1348
c-4.51367 7.52246 -3.51074 17.5518 3.00879 24.0703l24.5713 24.5723c6.01758 6.01758 15.5459 7.52246 23.5693 3.51074l50.1465 -27.5811c14.543 7.52148 29.5869 13.0381 45.1328 17.0498l14.542 50.6484c2.00586 9.02637 10.0303 15.0439 19.0566 15.0439h35.1025
c9.02637 0 17.0498 -6.01758 19.0557 -15.0439l15.5459 -54.1592c13.5391 -4.01172 27.0791 -10.0293 39.6162 -17.0498l47.6396 26.5781c7.52148 4.51367 17.5508 3.50977 24.0703 -3.00879l24.5713 -24.5723c6.01855 -6.01758 7.52246 -15.5449 3.51074 -23.5684
l-27.0791 -48.1416c8.02344 -14.041 14.542 -29.085 18.5537 -44.6309zM490.938 175.702c0 0.501953 0.500977 0.501953 1.00293 0.501953v33.0967l-58.1709 16.5488c-3.50977 1.00293 -6.01758 4.01172 -7.02051 7.52148
c-4.5127 17.5518 -11.5332 34.0996 -21.0615 49.6455c-1.50391 3.00879 -2.00586 7.02051 0 10.0293l29.5869 52.6543v0.501953l-24.5723 24.0703l-52.6543 -29.5869c-3.00879 -2.00586 -7.02051 -2.00586 -10.0293 0c-14.041 9.02637 -29.085 15.5459 -45.1318 19.5576
c-3.51074 1.00293 -6.01758 3.50977 -7.02051 7.02051l-18.0537 58.6719v0.500977l-34.6006 -0.500977l-16.0479 -56.666c-1.00293 -3.51074 -4.01172 -6.01758 -7.52148 -7.02051c-17.5518 -4.01172 -34.0996 -10.0293 -50.1475 -19.0557
c-3.50977 -1.50488 -7.02051 -1.50488 -10.0293 0l-54.1582 30.0879h-0.501953l-24.0703 -24.5723l28.082 -51.6514c1.50488 -3.00879 1.50488 -7.02051 -0.500977 -10.0293c-10.5312 -16.5488 -18.0527 -34.0996 -23.0674 -54.1582
c-1.00293 -3.00879 -3.51074 -6.01758 -7.02051 -7.02051l-58.1709 -16.5488h-0.500977l0.500977 -34.6016l58.1709 -17.5518c3.50977 -1.00293 6.01758 -4.01172 7.02051 -7.52148c4.01172 -17.5518 11.0322 -34.0996 20.5596 -49.6455
c1.50488 -3.00879 2.00586 -7.02051 0 -10.0293l-29.5859 -52.6543v-0.501953l24.5713 -24.0703l52.6543 29.5869c1.50488 1.00293 3.51074 1.50488 5.01465 1.50488c2.00586 0 4.01172 -0.501953 5.5166 -1.50488c16.0469 -10.0293 34.6016 -17.0498 55.1611 -21.5635
c3.51074 -0.500977 6.51953 -3.50977 7.52246 -7.02051l16.0469 -56.666v-0.500977l34.6016 0.500977l17.0498 59.6748c1.00293 3.51074 3.51074 6.01758 7.02051 7.02051c17.0498 4.51367 33.5986 12.0352 49.1445 22.0654
c3.50977 2.00586 7.02051 2.50684 10.5303 0.500977l51.6514 -28.082h0.501953l24.0703 24.0703l-30.0879 54.1582c-1.50488 3.51074 -1.50488 7.02051 0 10.0303c8.02344 14.542 14.041 30.0879 18.0527 45.1318c1.00293 3.50977 3.50977 6.51855 7.02051 7.52148z" />
    <glyph glyph-name="uniF11C" unicode="&#xf11c;" 
d="M408.008 114.565c5.47363 0 9.95117 -4.47754 9.95117 -9.95117v-89.5625c0 -27.3662 -22.3906 -49.7568 -49.7568 -49.7568h-318.445c-27.3662 0 -49.7568 22.3906 -49.7568 49.7568v278.64c0 27.3662 22.3906 49.7568 49.7568 49.7568h218.932
c5.47266 0 9.95117 -4.47852 9.95117 -9.95117c0 -5.47363 -4.47852 -9.95215 -9.95117 -9.95215h-218.932c-16.4199 0 -29.8545 -13.4346 -29.8545 -29.8535v-278.64c0 -16.4199 13.4346 -29.8545 29.8545 -29.8545h318.445c16.4199 0 29.8545 13.4346 29.8545 29.8545
v89.5625c0 5.47363 4.47754 9.95117 9.95117 9.95117zM408.008 173.776c5.47363 0 9.95117 -4.47754 9.95117 -9.95117v-14.4297c0 -5.47363 -4.47754 -9.95117 -9.95117 -9.95117s-9.95117 4.47754 -9.95117 9.95117v14.4297c0 5.47363 4.47754 9.95117 9.95117 9.95117z
M497.57 375.79c9.4541 -9.4541 14.4297 -21.8936 14.4297 -35.3271c0 -13.4346 -4.97559 -25.874 -14.4297 -35.3281l-19.4053 -19.4053c-0.49707 -0.49707 -0.995117 -1.49219 -1.49219 -1.99023c-0.498047 -0.49707 -1.49316 -0.995117 -1.99023 -1.49219
l-171.165 -171.164c-3.48242 -3.98145 -8.45801 -5.97168 -13.9316 -5.97168h-76.1279l-0.498047 -0.49707l-6.96582 -6.96582c-1.99023 -1.99023 -4.47852 -2.98535 -6.96582 -2.98535c-2.48828 0 -4.97559 0.995117 -6.96582 3.48242
c-3.98047 3.98047 -3.98047 9.95117 0 13.9326l6.96582 6.96582v77.123c0 4.97559 1.99023 9.95117 5.9707 13.9326l194.053 194.052c19.4053 19.4053 50.752 19.4053 70.1572 0zM283.615 125.015v19.4053h-29.8545c-8.45898 0 -14.9268 6.46875 -14.9268 14.9268v29.8545
h-19.9033v-64.1865h64.6846zM303.518 138.946l151.76 151.759l-70.6553 70.6553l-152.257 -152.257h11.4443c8.45898 0 14.9268 -6.46777 14.9268 -14.9268v-29.8545h29.8545c8.45898 0 14.9268 -6.46777 14.9268 -14.9268v-10.4492zM483.639 319.067
c5.47266 5.47266 8.45898 13.4346 8.45898 21.3955s-2.98633 15.4248 -8.45898 20.8975l-28.3613 28.3613c-11.9424 11.4443 -30.8496 11.4443 -42.2939 0l-13.9316 -13.9316l70.6543 -70.6553z" />
    <glyph glyph-name="uniF113" unicode="&#xf113;" 
d="M199.421 48.2764h-13.4609c-8.14062 0 -14.7598 6.62891 -14.7598 14.7686v101.699h-7.46387c-8.1416 0 -14.7598 6.61914 -14.7598 14.7598v11.4053c0 8.14062 6.61914 14.7686 14.7598 14.7686h35.6846c8.1416 0 14.7686 -6.62891 14.7686 -14.7686v-127.873
c-0.00878906 -8.13965 -6.62695 -14.7598 -14.7686 -14.7598zM163.736 192.342c-0.783203 0 -1.41406 -0.639648 -1.41406 -1.42383v-11.4053c0 -0.783203 0.630859 -1.41504 1.41406 -1.41504h14.1357c3.68359 0 6.67285 -2.98828 6.67285 -6.67188v-108.389
c0 -0.782227 0.630859 -1.42383 1.41406 -1.42383h13.4609c0.783203 0 1.42383 0.640625 1.42383 1.42383v127.882c0 0.783203 -0.639648 1.42383 -1.42383 1.42383zM334.475 48.2764h-12.2246c-8.14062 0 -14.7598 6.62891 -14.7598 14.7686v15.6943h-36.3428
c-13.2295 0 -26.6191 9.08301 -26.6191 26.4316c0 11.21 5.71191 20.623 8.78125 25.6846l38.6201 64.6533c3.4873 5.80957 11.21 10.1953 17.9805 10.1953h24.6357c3.94141 0 7.65137 -1.53906 10.4355 -4.33301c2.78418 -2.78516 4.31445 -6.49512 4.31445 -10.4365
l-0.0625 -71.2549h0.213867c7.48242 0 13.5674 -6.61914 13.5674 -14.7588v-11.4062c0 -8.14062 -6.08496 -14.7598 -13.5674 -14.7598h-0.222656v-15.6934c0.00878906 -8.16504 -6.61035 -14.7852 -14.75 -14.7852zM309.91 192.342
c-2.13477 0 -5.42578 -1.86816 -6.52051 -3.7002l-38.6387 -64.6797c-3.33594 -5.49805 -6.86816 -11.8955 -6.86816 -18.7998c0 -9.65332 7.15332 -13.0869 13.2744 -13.0869h43.0166c3.68262 0 6.67188 -2.98926 6.67188 -6.67188v-22.3662
c0 -0.782227 0.631836 -1.42383 1.41406 -1.42383h12.2246c0.773438 0 1.41406 0.640625 1.41406 1.42383v22.3662c0 3.68262 2.98926 6.67188 6.67188 6.67188h6.89551c-0.1875 0 0.222656 0.480469 0.222656 1.41406v11.4062
c0 0.943359 -0.418945 1.41406 -0.525391 1.48535l-6.60156 -0.0712891c-1.77051 0 -3.46973 0.702148 -4.72363 1.95703c-1.25391 1.25391 -1.94824 2.9541 -1.94824 4.72363l0.0712891 77.9355c0 0.667969 -0.739258 1.41406 -1.40527 1.41406zM314.171 106.311h-27.0908
c-2.45508 0 -4.72363 1.35254 -5.88086 3.52344c-1.15625 2.16992 -1.03223 4.79492 0.330078 6.85059l27.0898 40.6582c1.62891 2.44629 4.66113 3.5498 7.48145 2.6875c2.8125 -0.853516 4.74316 -3.44336 4.74316 -6.3877v-40.6592
c0.000976562 -3.68359 -2.98828 -6.67285 -6.67285 -6.67285zM299.546 119.656h7.95312v11.9395zM67.3223 8.36523c-4.91113 0 -8.89746 3.98633 -8.89746 8.89746v236.663c0 4.91113 3.98633 8.89648 8.89746 8.89648h377.347c4.91113 0 8.89746 -3.98535 8.89746 -8.89648
v-236.663c0 -4.91113 -3.98633 -8.89746 -8.89746 -8.89746h-377.347zM76.2188 245.029v-218.869h359.555v218.869h-359.555zM328.397 327.093c-4.91992 0 -8.89746 3.98535 -8.90332 8.89746v57.4551c0 6.37012 -5.1875 11.5654 -11.5654 11.5654h-102.277
c-6.3877 0 -11.5742 -5.18652 -11.5742 -11.5654v-55.2305c0 -4.91113 -3.98633 -8.89746 -8.89746 -8.89746s-8.89746 3.98633 -8.89746 8.89746v55.2305c0 16.1836 13.1758 29.3594 29.3682 29.3594h102.285c16.1924 0 29.3594 -13.167 29.3594 -29.3594v-57.4551
c0 -4.91113 -3.98633 -8.89746 -8.89746 -8.89746zM470.541 304.272c0 -4.91113 -3.98535 -8.89648 -8.88672 -8.89648h-133.257c-4.91113 0 -8.89746 3.98535 -8.89746 8.89648s3.98633 8.89746 8.89746 8.89746h133.246c4.91113 0 8.89746 -3.98633 8.89746 -8.89746z
M482.115 422.813c16.709 0 29.8848 -13.1758 29.8857 -29.3682v-423.361c0 -4.91113 -3.98633 -8.89746 -8.89746 -8.89746h-494.206c-4.91113 0 -8.89746 3.98633 -8.89746 8.89746v423.361c0 16.1826 13.1758 29.3594 29.3691 29.3594h2.09863
c16.1924 0 29.3682 -13.167 29.3682 -29.3594v-56.3428c0 -4.91113 -3.98633 -8.89746 -8.89746 -8.89746s-8.89746 3.98633 -8.89746 8.89746v56.3428c0 6.37012 -5.19531 11.5654 -11.5742 11.5654h-2.09863c-6.3877 0 -11.5752 -5.18652 -11.5752 -11.5654v-414.465
h476.415v414.465c0 6.37012 -5.19629 11.5654 -11.5752 11.5654c-6.90332 0 -12.0908 -5.18652 -12.0908 -11.5654v-58.5586c0 -4.91016 -3.98633 -8.89648 -8.89648 -8.89648c-4.91113 0 -8.89746 3.98633 -8.89746 8.89648v58.5674
c0 16.1836 13.1758 29.3594 29.3672 29.3594zM43.043 304.272c0 4.91113 3.98535 8.89648 8.89648 8.89746h133.239c4.91113 0 8.89648 -3.98633 8.89648 -8.89746s-3.98535 -8.89648 -8.89648 -8.89648h-133.239c-4.91113 0 -8.89648 3.98535 -8.89648 8.89648z" />
    <glyph glyph-name="uniF133" unicode="&#xf133;" 
d="M489.826 380.477c29.5654 -28.9961 29.5654 -77.3242 0 -105.752l-308.728 -309.864c-10.8027 -10.8027 -25.0166 -17.0566 -40.3672 -17.0566h-112.575c0 -0.569336 -0.568359 -1.1377 -1.13672 -1.70605l-7.3916 -6.82227
c-2.27441 -1.70605 -5.11719 -2.84375 -7.95996 -2.84375c-3.41113 0 -6.25391 1.1377 -8.52832 3.41211c-4.54785 4.54785 -3.97949 11.3711 0.568359 15.9189l7.3916 6.82324h0.568359v113.712c0 15.9189 6.25488 30.7021 17.0566 40.9355l309.296 308.159
c14.2148 14.2139 33.5459 22.1738 53.4453 22.1738c20.4678 0 39.2305 -7.95996 53.4443 -22.1738zM148.122 -28.8857v55.7188h-39.7988c-9.66504 0 -17.0566 7.3916 -17.0566 17.0566v39.7988h-54.0137h-1.70508c-0.568359 -2.27344 -1.1377 -4.54785 -1.1377 -7.39062
v-106.32h106.321c2.27344 0 5.11621 0.568359 7.39062 1.13672zM170.864 -14.1035l260.969 262.105l-119.397 119.397l-262.105 -260.968h46.6221c9.66504 0 17.0566 -7.3916 17.0566 -17.0576v-39.7988h39.7988c9.66602 0 17.0566 -7.3916 17.0566 -17.0566v-46.6221z
M473.906 290.076c20.4688 20.4678 20.4688 54.0127 -0.568359 74.4805l-44.916 44.916c-9.66602 9.66602 -22.7422 15.3516 -36.9561 15.3516c-13.6455 0 -26.7227 -5.11719 -36.957 -15.3516l-26.1533 -26.1533l119.397 -119.397z" />
    <glyph glyph-name="uniF132" unicode="&#xf132;" 
d="M405.333 448c29.334 0 53.334 -24 53.334 -53.333v-270.4c0 -14.3994 -5.86719 -28.2666 -15.4668 -37.8662l-134.934 -134.934c-9.59961 -10.1338 -23.4668 -15.4668 -37.8662 -15.4668h-163.733c-29.334 0 -53.334 24 -53.334 53.333v405.334
c0 29.333 24 53.333 53.334 53.333h298.666zM428.267 101.333c1.59961 1.60059 3.2002 3.2002 4.2666 5.33398h-112.533c-17.5996 0 -32 -14.4004 -32 -32v-112.534c2.13379 1.06738 3.7334 2.66699 5.33301 4.26758zM437.333 128v266.667c0 17.5996 -14.3994 32 -32 32
h-298.666c-17.6006 0 -32 -14.4004 -32 -32v-405.334c0 -17.5996 14.3994 -32 32 -32h160v117.334c0 29.333 24 53.333 53.333 53.333h117.333zM144 320c-5.86621 0 -10.667 4.7998 -10.667 10.667c0 5.86621 4.80078 10.666 10.667 10.666h186.667
c5.86621 0 10.666 -4.7998 10.666 -10.666c0 -5.86719 -4.7998 -10.667 -10.666 -10.667h-186.667zM144 256c-5.86621 0 -10.667 4.7998 -10.667 10.667c0 5.86621 4.80078 10.666 10.667 10.666h74.667c5.86621 0 10.666 -4.7998 10.666 -10.666
c0 -5.86719 -4.7998 -10.667 -10.666 -10.667h-74.667zM266.667 277.333h16c5.86621 0 10.666 -4.7998 10.666 -10.666c0 -5.86719 -4.7998 -10.667 -10.666 -10.667h-16c-5.86719 0 -10.667 4.7998 -10.667 10.667c0 5.86621 4.7998 10.666 10.667 10.666zM186.667 149.333
c5.86621 0 10.666 -4.7998 10.666 -10.666c0 -5.86719 -4.7998 -10.667 -10.666 -10.667h-42.667c-5.86621 0 -10.667 4.7998 -10.667 10.667c0 5.86621 4.80078 10.666 10.667 10.666h42.667zM346.667 213.333c5.86621 0 10.666 -4.7998 10.666 -10.666
c0 -5.86719 -4.7998 -10.667 -10.666 -10.667h-202.667c-5.86621 0 -10.667 4.7998 -10.667 10.667c0 5.86621 4.80078 10.666 10.667 10.666h202.667z" />
    <glyph glyph-name="uniF147" unicode="&#xf147;" 
d="M502.602 93.4375c12.541 -13.8857 12.541 -36.3457 -0.0644531 -50.2959l-0.128906 0.12793c-5.63184 -6.91113 -13.7578 -11.2627 -22.9727 -11.2627h-446.849c-9.02246 0 -17.0215 4.16016 -22.8438 10.8145l-0.384766 0.320312
c-12.4795 13.9502 -12.4795 36.4102 0 50.2959l223.457 246.813l0.767578 1.28027c12.4141 13.9512 32.6348 13.9512 45.1143 0z" />
    <glyph glyph-name="uniF142" unicode="&#xf142;" 
d="M128 224h256v-64h-256v64zM480 416v-448h-448v448h448zM448 0v384h-384v-384h384z" />
    <glyph glyph-name="uniF117" unicode="&#xf117;" 
d="M32 224h416v-96h-416v96z" />
    <glyph glyph-name="uniF135" unicode="&#xf135;" 
d="M483.556 220.444c15.6445 0 28.4443 -12.7432 28.4443 -28.4443c0 -15.6445 -12.7998 -28.4443 -28.4443 -28.4443h-199.111v-199.111c0 -15.6445 -12.7998 -28.4443 -28.4443 -28.4443c-15.7012 0 -28.4443 12.7998 -28.4443 28.4443v199.111h-199.111
c-15.7021 0 -28.4443 12.7998 -28.4443 28.4443c0 15.7012 12.7422 28.4443 28.4443 28.4443h199.111v199.111c0 15.7021 12.7432 28.4443 28.4443 28.4443c15.6445 0 28.4443 -12.7422 28.4443 -28.4443v-199.111h199.111z" />
    <glyph glyph-name="uniF141" unicode="&#xf141;" 
d="M0 448h512v-512h-512v512zM480 -32v448h-448v-448h448zM128 320h256v-256h-256v256z" />
    <glyph glyph-name="uniF138" unicode="&#xf138;" 
d="M256 320c71.6797 0 128 -56.3203 128 -128s-56.3203 -128 -128 -128s-128 56.3203 -128 128s56.3203 128 128 128zM256 448c140.8 0 256 -115.2 256 -256s-115.2 -256 -256 -256s-256 115.2 -256 256s115.2 256 256 256zM256 -12.7998
c112.64 0 204.8 92.1602 204.8 204.8s-92.1602 204.8 -204.8 204.8s-204.8 -92.1602 -204.8 -204.8s92.1602 -204.8 204.8 -204.8z" />
    <glyph glyph-name="uniF11E" unicode="&#xf11e;" 
d="M256 416c-124.8 0 -224 -99.2002 -224 -224s99.2002 -224 224 -224s224 99.2002 224 224s-99.2002 224 -224 224zM256 448v0c140.8 0 256 -115.2 256 -256s-115.2 -256 -256 -256s-256 115.2 -256 256s115.2 256 256 256zM390.4 102.4l-44.8008 -44.8008
l-89.5996 89.6006l-89.5996 -89.6006l-44.8008 44.8008l89.6006 89.5996l-89.6006 89.5996l44.8008 44.8008l89.5996 -89.6006l89.5996 89.6006l44.8008 -44.8008l-89.6006 -89.5996z" />
    <glyph glyph-name="uniF106" unicode="&#xf106;" 
d="M505.027 208.834c9.29785 -9.29785 9.29785 -24.3701 0 -33.668l-152.358 -152.363c-4.64941 -4.64453 -10.7422 -6.97266 -16.835 -6.97266c-6.0918 0 -12.1865 2.32812 -16.834 6.97266c-9.29785 9.29785 -9.29785 24.3711 0 33.6689l111.719 111.722h-406.912
c-13.1465 0 -23.8066 10.6611 -23.8066 23.8066c0 13.1475 10.6602 23.8066 23.8066 23.8066h406.911l-111.722 111.722c-9.29785 9.29785 -9.29785 24.3711 0 33.6689c9.2959 9.2959 24.3721 9.2959 33.6689 0z" />
    <glyph glyph-name="uniF12D" unicode="&#xf12d;" 
d="M336 224h176v-32h-512v32h153.6c-19.1992 22.4004 -28.7998 54.4004 -22.3994 96c6.39941 60.7998 41.5996 92.7998 67.2002 108.8c76.7998 44.7998 182.399 6.40039 195.199 0l-35.1992 -89.5996c-22.4004 9.59961 -83.2002 22.3994 -112 6.39941
c-6.40039 -6.39941 -16 -12.7998 -19.2002 -38.3994c-3.2002 -25.6006 0 -32 64 -60.7998c12.7998 -6.40039 28.7998 -12.8008 44.7998 -22.4004zM246.4 160v3.2002h160c12.7998 -25.6006 19.1992 -57.6006 12.7998 -99.2002c-12.7998 -64 -48 -92.7998 -76.7998 -108.8
c-25.6006 -12.7998 -54.4004 -19.2002 -83.2002 -19.2002c-70.4004 0 -134.4 28.7998 -144 32l38.3994 83.2002c35.2002 -16 105.601 -35.2002 140.801 -16c9.59961 6.39941 19.1992 12.7998 25.5996 41.5996c6.40039 41.6006 -6.40039 51.2002 -70.4004 80
c0 3.2002 -3.19922 3.2002 -3.19922 3.2002z" />
    <glyph glyph-name="uniF128" unicode="&#xf128;" 
d="M256 448h96l-96 -512h-96z" />
    <glyph glyph-name="uniF143" unicode="&#xf143;" 
d="M384 224v-64h-96v-96h-64v96h-96v64h96v96h64v-96h96zM480 416v-448h-448v448h448zM448 0v384h-384v-384h384z" />
    <glyph glyph-name="uniF114" unicode="&#xf114;" 
d="M341.422 298.511c5.87305 0 10.6777 -4.80469 10.6777 -10.6777s-4.80469 -10.6777 -10.6777 -10.6777h-16.0166c-5.87207 0 -10.6777 4.80469 -10.6777 10.6777s4.80566 10.6777 10.6777 10.6777h16.0166zM421.506 383.934c29.3643 0 53.3887 -24.0254 53.3887 -53.3896
v-21.3555c0 -16.0166 -12.2793 -29.3633 -27.7617 -31.499l-27.2285 -293.105c-2.66992 -27.7627 -25.627 -48.584 -53.3887 -48.584h-221.03c-27.7627 0 -50.7197 20.8213 -53.3896 48.584l-27.2285 293.105c-15.4824 2.13574 -27.7617 15.4824 -27.7617 31.499v21.3555
c0 29.3643 24.0244 53.3896 53.3887 53.3896h58.7275c0 35.2363 28.8301 64.0664 64.0674 64.0664h80.083c35.2373 0 64.0674 -28.8301 64.0674 -64.0664h64.0664zM213.289 426.645c-23.4912 0 -42.7109 -19.2197 -42.7109 -42.7109h165.505
c0 23.4912 -19.2197 42.7109 -42.7109 42.7109h-80.083zM453.539 309.188v21.3555c0 17.6191 -14.415 32.0342 -32.0332 32.0342h-331.012c-17.6182 0 -32.0332 -14.415 -32.0332 -32.0342v-21.3555c0 -5.87207 4.80469 -10.6777 10.6777 -10.6777h5.33887h202.878
c5.87305 0 10.6777 -4.80469 10.6777 -10.6777s-4.80469 -10.6777 -10.6777 -10.6777h-191.132l27.2275 -290.97c1.60156 -16.5508 15.4834 -29.3643 32.0342 -29.3643h221.03c16.5498 0 30.4316 12.8135 32.0332 29.3643l28.2959 302.716
c0.53418 5.33887 5.33887 9.60938 10.6777 9.60938h5.33887c5.87305 0 10.6777 4.80566 10.6777 10.6777zM170.578 234.444c5.87207 0 10.6777 -4.80469 10.6777 -10.6777v-202.878c0 -5.87305 -4.80566 -10.6777 -10.6777 -10.6777
c-5.87305 0 -10.6777 4.80469 -10.6777 10.6777v202.878c0 5.87305 4.80469 10.6777 10.6777 10.6777zM256 234.444c5.87305 0 10.6777 -4.80469 10.6777 -10.6777v-202.878c0 -5.87305 -4.80469 -10.6777 -10.6777 -10.6777s-10.6777 4.80469 -10.6777 10.6777v202.878
c0 5.87305 4.80469 10.6777 10.6777 10.6777zM341.422 234.444c5.87305 0 10.6777 -4.80469 10.6777 -10.6777v-202.878c0 -5.87305 -4.80469 -10.6777 -10.6777 -10.6777c-5.87207 0 -10.6777 4.80469 -10.6777 10.6777v202.878c0 5.87305 4.80566 10.6777 10.6777 10.6777
z" />
  </font>
</defs>
</svg>
